<svg xmlns="http://www.w3.org/2000/svg" width="34" height="20" viewBox="0 0 34 20">
  <g fill="none" fill-rule="evenodd" transform="translate(1 1)">
    <path stroke="#242B35" stroke-linecap="round" stroke-linejoin="round" stroke-width="2" d="M0,11 L0,10 L4,10 C5.1045695,10 6,9.1045695 6,8 L6,7 C6,5.8954305 5.1045695,5 4,5 L0,5 L0,3 C0,1.34314575 1.34314575,0 3,0 L29,0 C30.6568542,-4.4408921e-16 32,1.34314575 32,3 L32,11"/>
    <path stroke="#242B35" stroke-width="2" d="M0 11C0 14.8659932 3.13400675 18 7 18 10.8659932 18 14 14.8659932 14 11M18 11C18 14.8659932 21.1340068 18 25 18 28.8659932 18 32 14.8659932 32 11M13.9992676 10.9998779L13.9992676 10.9998779C13.9992676 9.89537585 14.8946434 9 15.9991455 9L16 9C17.1045695 9 18 9.8954305 18 11"/>
    <circle cx="25" cy="11" r="3" fill="#E62249"/>
  </g>
</svg>
