<svg xmlns="http://www.w3.org/2000/svg" width="69" height="60" viewBox="0 0 69 60">
  <g fill="none" fill-rule="evenodd">
    <path fill="#662D91" d="M3.54464412,60 L65.546265,60 C66.2366209,60 66.796265,59.4403559 66.796265,58.75 C66.796265,58.3139625 66.5690468,57.9094371 66.1966882,57.6825499 L50.8429869,48.3271676 C50.5294768,48.1361383 50.1694347,48.0350877 49.8023097,48.0350877 L19.2885993,48.0350877 C18.9214744,48.0350877 18.5614323,48.1361383 18.2479222,48.3271676 L2.89422092,57.6825499 C2.30468452,58.0417687 2.11797523,58.8108868 2.47719404,59.4004232 C2.70408119,59.7727818 3.10860658,60 3.54464412,60 Z"/>
    <path fill="#FF5000" d="M2.41103675,56.8871823 L18.3291161,47.1840659 C18.5893347,47.0254455 18.8098632,46.8094559 18.9738601,46.5525918 L33.685722,23.5097893 C33.8909551,23.188338 34,22.8149077 34,22.4335266 L34,1.75572043 C34,1.20343568 33.5522847,0.755720428 33,0.755720428 C32.6416079,0.755720428 32.3106194,0.947513 32.1324027,1.25845303 L1.02295046,55.5360465 C0.748317263,56.0152072 0.914119622,56.626278 1.3932804,56.9009112 C1.70965964,57.0822454 2.09966392,57.0769845 2.41103675,56.8871823 Z"/>
    <path fill="#9E1F63" d="M36.6079724,56.8871823 L52.5260517,47.1840659 C52.7862704,47.0254455 53.0067989,46.8094559 53.1707958,46.5525918 L67.8826577,23.5097893 C68.0878908,23.188338 68.1969357,22.8149077 68.1969357,22.4335266 L68.1969357,1.75572043 C68.1969357,1.20343568 67.7492204,0.755720428 67.1969357,0.755720428 C66.8385436,0.755720428 66.5075551,0.947513 66.3293383,1.25845303 L35.2198861,55.5360465 C34.9452529,56.0152072 35.1110553,56.626278 35.5902161,56.9009112 C35.9065953,57.0822454 36.2965996,57.0769845 36.6079724,56.8871823 Z" transform="matrix(-1 0 0 1 103.284 0)"/>
  </g>
</svg>
