<svg xmlns="http://www.w3.org/2000/svg" width="12" height="10" viewBox="0 0 12 10" fill="#242B35">
  <path fill-rule="evenodd" d="M12,20 L22,20 C22.5522847,20 23,20.4477153 23,21 C23,21.5522847 22.5522847,22 22,22 L12,22 C11.4477153,22 11,21.5522847 11,21 C11,20.4477153 11.4477153,20 12,20 Z M12,16 L22,16 C22.5522847,16 23,16.4477153 23,17 C23,17.5522847 22.5522847,18 22,18 L12,18 C11.4477153,18 11,17.5522847 11,17 C11,16.4477153 11.4477153,16 12,16 Z M12,12 L22,12 C22.5522847,12 23,12.4477153 23,13 C23,13.5522847 22.5522847,14 22,14 L12,14 C11.4477153,14 11,13.5522847 11,13 C11,12.4477153 11.4477153,12 12,12 Z" transform="translate(-11 -12)"/>
</svg>
