<svg xmlns="http://www.w3.org/2000/svg" width="16" height="16" viewBox="0 0 16 16">
  <path fill="#242B35" fill-rule="evenodd" d="M8,16 C3.581722,16 0,12.418278 0,8 C0,3.581722 3.581722,0 8,0 C12.418278,0 16,3.581722 16,8 C16,12.418278 12.418278,16 8,16 Z M9.23177872,6.3598156 L7.43280165,8.51858809 L6.70710678,7.79289322 C6.31658249,7.40236893 5.68341751,7.40236893 5.29289322,7.79289322 C4.90236893,8.18341751 4.90236893,8.81658249 5.29289322,9.20710678 L6.40574065,10.3199542 C6.45454704,10.3673071 6.45454704,10.3673071 6.50612422,10.411626 C7.14253957,10.9419721 8.08838662,10.855986 8.61873274,10.2195706 L10.7682213,7.6401844 C11.1217854,7.2159075 11.0644613,6.5853428 10.6401844,6.23177872 C10.2159075,5.87821464 9.5853428,5.9355387 9.23177872,6.3598156 Z"/>
</svg>
