<svg xmlns="http://www.w3.org/2000/svg" width="12" height="12" viewBox="0 0 12 12" fill="#FFF">
  <path d="M5.00058536,3.58637179 L9.28847395,-0.703297834 C9.67891715,-1.09390321 10.3120821,-1.09403467 10.7026875,-0.703591479 C11.0932929,-0.313148284 11.0934243,0.320016681 10.7029811,0.710622053 L6.41479895,5.00058539 L10.7071068,9.29289322 C11.0976311,9.68341751 11.0976311,10.3165825 10.7071068,10.7071068 C10.3165825,11.0976311 9.68341751,11.0976311 9.29289322,10.7071068 L5.00087903,6.41509259 L0.710793628,10.7069599 C0.320350432,11.0975653 -0.312814533,11.0976968 -0.703419904,10.7072536 C-1.09402528,10.3168104 -1.09415674,9.68364543 -0.70371355,9.29304006 L3.58666544,5.000879 L-0.707106781,0.707106781 C-1.09763107,0.316582489 -1.09763107,-0.316582489 -0.707106781,-0.707106781 C-0.316582489,-1.09763107 0.316582489,-1.09763107 0.707106781,-0.707106781 L5.00058536,3.58637179 Z" transform="translate(1 1)"/>
</svg>
