<svg xmlns="http://www.w3.org/2000/svg" width="16" height="16" viewBox="0 0 16 16">
  <path fill="#E62249" d="M8,13.7 C11.1480231,13.7 13.7,11.1480231 13.7,8 C13.7,4.85197693 11.1480231,2.3 8,2.3 C4.85197693,2.3 2.3,4.85197693 2.3,8 C2.3,11.1480231 4.85197693,13.7 8,13.7 Z M8,16 C3.581722,16 0,12.418278 0,8 C0,3.581722 3.581722,0 8,0 C12.418278,0 16,3.581722 16,8 C16,12.418278 12.418278,16 8,16 Z M8,10 C9.1045695,10 10,9.1045695 10,8 C10,6.8954305 9.1045695,6 8,6 C6.8954305,6 6,6.8954305 6,8 C6,9.1045695 6.8954305,10 8,10 Z"/>
</svg>
