<svg xmlns="http://www.w3.org/2000/svg" width="48" height="3" viewBox="0 0 48 3">
  <path fill="#E62249" fill-rule="evenodd" d="M1.5,87 L26.5,87 C27.3284271,87 28,87.6715729 28,88.5 C28,89.3284271 27.3284271,90 26.5,90 L1.5,90 C0.671572875,90 1.01453063e-16,89.3284271 0,88.5 C-1.01453063e-16,87.6715729 0.671572875,87 1.5,87 Z M33.5,87 L36.5,87 C37.3284271,87 38,87.6715729 38,88.5 C38,89.3284271 37.3284271,90 36.5,90 L33.5,90 C32.6715729,90 32,89.3284271 32,88.5 C32,87.6715729 32.6715729,87 33.5,87 Z M43.5,87 L46.5,87 C47.3284271,87 48,87.6715729 48,88.5 C48,89.3284271 47.3284271,90 46.5,90 L43.5,90 C42.6715729,90 42,89.3284271 42,88.5 C42,87.6715729 42.6715729,87 43.5,87 Z" transform="translate(0 -87)"/>
</svg>
