<svg xmlns="http://www.w3.org/2000/svg" width="3" height="48" viewBox="0 0 3 48">
  <path fill="#E62249" fill-rule="evenodd" d="M534.5,50 C535.328427,50 536,50.6715729 536,51.5 L536,76.5 C536,77.3284271 535.328427,78 534.5,78 C533.671573,78 533,77.3284271 533,76.5 L533,51.5 C533,50.6715729 533.671573,50 534.5,50 Z M534.5,82 C535.328427,82 536,82.6715729 536,83.5 L536,86.5 C536,87.3284271 535.328427,88 534.5,88 C533.671573,88 533,87.3284271 533,86.5 L533,83.5 C533,82.6715729 533.671573,82 534.5,82 Z M534.5,92 C535.328427,92 536,92.6715729 536,93.5 L536,96.5 C536,97.3284271 535.328427,98 534.5,98 C533.671573,98 533,97.3284271 533,96.5 L533,93.5 C533,92.6715729 533.671573,92 534.5,92 Z" transform="translate(-533 -50)"/>
</svg>
