<svg xmlns="http://www.w3.org/2000/svg" width="62" height="62" viewBox="0 0 62 62">
  <g fill="none">
    <path fill="#D7D1C7" d="M60.605,34.069 C60.698,33.046 60.76,32.054 60.76,31 C60.76,14.57 47.43,1.24 31,1.24 C14.57,1.24 1.24,14.57 1.24,31 C1.24,31.124 60.14,32.519 60.605,34.069"/>
    <path fill="#BFB5AF" d="M1.116,31.062 C1.116,47.492 14.446,60.822 30.876,60.822 C47.306,60.822 58.94526,50.716 60.636,34.782 C60.64902,34.658 1.116,30.039 1.116,31.062"/>
    <path fill="#F47E33" d="M19.468,8.99 C22.754,8.99 25.42,11.656 25.42,14.942 C25.42,18.228 22.754,20.894 19.468,20.894 C16.182,20.894 13.516,18.228 13.516,14.942 C13.516,11.656 16.182,8.99 19.468,8.99"/>
    <path fill="#35312E" d="M19.468,10.23 C16.8656343,10.23 14.756,12.3396343 14.756,14.942 C14.756,17.5443657 16.8656343,19.654 19.468,19.654 C22.0703657,19.654 24.18,17.5443657 24.18,14.942 C24.18,12.338 22.041,10.23 19.468,10.23 M19.468,22.134 C15.5,22.134 12.276,18.91 12.276,14.942 C12.276,10.974 15.5,7.75 19.468,7.75 C23.436,7.75 26.66,10.974 26.66,14.942 C26.66,18.91 23.405,22.134 19.468,22.134"/>
    <path fill="#F47E33" d="M38.812,8.711 C43.96544,8.711 48.143,12.88856 48.143,18.042 C48.143,23.19544 43.96544,27.373 38.812,27.373 C33.65856,27.373 29.481,23.19544 29.481,18.042 C29.481,12.88856 33.65856,8.711 38.812,8.711"/>
    <g fill="#BFB5AF" transform="translate(1.24 21.886)">
      <polyline points="20.863 16.12 28.427 6.572 30.039 7.502 33.139 8.649 35.34 7.502 42.377 0 44.826 3.286 46.004 2.325 47.554 2.325 51.46 7.781 54.25 7.316 59.272 13.02"/>
      <polyline points="25.823 11.377 21.731 9.114 15.779 10.664 13.051 1.643 8.153 1.643 3.441 9.92 0 10.044"/>
    </g>
    <g fill="#F47E33" transform="translate(6.169 32.488)">
      <path d="M7.347 2.511C7.347 2.511 5.115 9.021 5.115 9.145 5.115 9.765 6.107 10.261 7.347 10.261 8.587 10.261 9.579 9.765 9.579 9.145 9.548 9.052 7.347 2.511 7.347 2.511M2.201 0C2.201 0 0 6.479 0 6.603 0 7.223.992 7.719 2.201 7.719 3.41 7.719 4.402 7.223 4.402 6.603 4.402 6.479 2.201 0 2.201 0"/>
    </g>
    <g fill="#D8A780" transform="translate(30.845 28.613)">
      <path d="M17.918 4.557C17.918 7.068 5.983 7.068 5.983 4.557 5.983 2.046 8.649 0 11.935 0 15.221 0 17.918 2.015 17.918 4.557M23.87 10.757C23.87 13.268 11.935 13.268 11.935 10.757 11.935 8.246 14.601 6.2 17.887 6.2 21.204 6.169 23.87 8.215 23.87 10.757M11.935 18.135C11.935 20.646 0 20.646 0 18.135 0 15.624 2.666 13.578 5.952 13.578 9.238 13.578 11.935 15.624 11.935 18.135"/>
    </g>
    <path fill="#D7D1C7" d="M31.341,59.551 C19.034,59.551 8.494,51.832 4.309,40.982 C5.146,40.982 6.014,41.013 6.913,41.013 C7.347,41.137 7.843,41.199 8.37,41.199 C8.804,41.199 9.176,41.168 9.548,41.075 C9.734,41.075 9.951,41.075 10.137,41.106 C10.075,41.292 10.075,41.354 10.075,41.416 C10.075,42.811 11.563,43.803 13.578,43.803 C15.562,43.803 16.678,42.563 16.771,41.23 C17.081,41.261 17.732,41.571 18.042,41.602 C26.412,42.501 26.97,44.02 26.97,44.082 C27.001,44.206 26.784,44.857 25.11,46.004 C21.514,48.484 20.274,49.941 20.615,51.491 C21.018,53.351 23.436,53.816 27.094,54.498 C28.117,54.684 29.295,54.932 30.504,55.18 C31.837,55.49 33.232,55.769 34.565,56.017 C37.045,56.513 39.556,57.009 41.54,57.629 C38.409,58.9 34.937,59.551 31.341,59.551"/>
    <path fill="#35312E" d="M55.955,27.869 L53.289,28.334 L49.445,23.002 L48.205,23.002 C48.9999404,21.4806698 49.4147554,19.7895009 49.414,18.073 C49.414,12.245 44.671,7.502 38.843,7.502 C33.015,7.502 28.241,12.214 28.241,18.042 C28.241,22.878 31.527,26.97 35.96,28.241 L35.805,28.396 L34.286,29.171 L31.806,28.272 L29.357,26.846 L25.916,31.186 L23.157,29.667 L17.856,31.031 L15.19,22.289 L8.68,22.289 L3.937,30.597 L2.48,30.628 C2.666,15.066 15.407,2.48 31,2.48 C46.717,2.48 59.52,15.283 59.52,31 L59.52,31.899 L55.955,27.869 Z M41.54,46.593 C41.106,46.903 39.494,47.399 36.828,47.399 C34.162,47.399 32.55,46.903 32.116,46.593 C32.24,44.857 34.348,43.431 36.828,43.431 C39.308,43.431 41.416,44.857 41.54,46.593 Z M48.763,36.022 C51.243,36.022 53.351,37.448 53.475,39.184 C53.041,39.494 51.398,39.99 48.763,39.99 C46.128,39.99 44.485,39.494 44.051,39.184 C44.175,37.448 46.283,36.022 48.763,36.022 Z M47.492,32.984 C47.058,33.294 45.415,33.79 42.78,33.79 C40.145,33.79 38.502,33.294 38.068,32.984 C38.192,31.248 40.3,29.822 42.78,29.822 C45.26,29.822 47.368,31.248 47.492,32.984 Z M45.601,22.475 L43.741,19.964 L37.975,26.133 C33.914,25.699 30.752,22.258 30.752,18.073 C30.752,13.609 34.379,9.982 38.843,9.982 C43.307,9.982 46.934,13.609 46.934,18.073 C46.9299512,19.6391533 46.4664754,21.1697013 45.601,22.475 Z M44.268,56.234 C41.943,55.087 38.409,54.405 34.689,53.661 C33.387,53.413 32.023,53.134 30.721,52.855 C29.512,52.576 28.334,52.359 27.28,52.173 C25.606,51.863 23.591,51.46 22.94,51.088 C23.157,50.747 23.839,49.941 26.257,48.298 C27.125,47.709 29.76,45.911 29.047,43.617 C28.396,41.478 25.017,40.176 18.135,39.432 C17.515,39.37 16.864,39.308 16.182,39.246 C15.841,38.223 15.345,36.766 14.632,34.658 L13.454,31.217 L12.276,34.658 C11.873,35.805 11.563,36.735 11.284,37.541 C10.974,36.549 10.416,34.937 9.455,32.147 L8.37,28.644 L7.192,32.085 C5.58,36.797 5.115,38.192 4.991,38.719 L3.565,38.719 C3.05909926,36.8839155 2.72696914,35.0053045 2.573,33.108 L5.425,33.015 L10.137,24.769 L13.392,24.769 L16.213,34.038 L22.847,32.333 L24.366,33.17 L21.142,37.231 L23.095,38.781 L29.977,30.07 L30.783,30.535 L34.503,31.899 L36.115,31.062 C35.805,31.713 35.619,32.426 35.619,33.17 C35.619,33.914 36.084,35.495 39.618,36.084 C40.7421746,36.2685636 41.5681689,37.2387791 41.571,38.378 L41.571,42.408 C41.075,42.067 40.517,41.757 39.897,41.54 L39.928,41.54 C38.564,41.106 37.293,40.455 36.89,39.122 C36.58,40.207 35.712,40.827 34.596,41.261 C31.713,42.036 29.636,44.206 29.636,46.779 C29.636,47.709 30.349,49.91 36.828,49.91 C43.338,49.91 44.02,47.709 44.02,46.779 L44.02,41.912 C44.454,42.067 44.95,42.191 45.539,42.284 C46.6631746,42.4685636 47.4891689,43.4387791 47.492,44.578 L47.492,47.368 C47.492,48.019 47.957,48.608 48.608,48.67 C49.352,48.732 49.972,48.143 49.972,47.43 L49.972,44.578 C49.9748311,43.4387791 50.8008254,42.4685636 51.925,42.284 C55.459,41.695 55.924,40.145 55.924,39.37 C55.924,37.293 54.56,35.495 52.545,34.472 L52.576,34.472 C52.545,34.472 52.514,34.441 52.452,34.441 C52.111,34.255 51.708,34.131 51.336,34.007 C50.778,33.728 50.282,33.356 49.941,32.891 C49.786,30.69 48.143,28.83 45.787,27.931 L45.756,27.931 C45.601,27.869 45.446,27.838 45.291,27.776 C44.113,27.342 43.09,26.691 42.749,25.544 C42.377,26.815 41.292,27.466 39.897,27.9 C39.804,27.931 39.68,27.962 39.587,28.024 L43.462,23.901 L45.787,27.032 L47.647,25.544 L48.112,25.544 L52.142,31.093 L54.994,30.597 L59.179,35.34 C57.815,44.392 52.142,52.08 44.268,56.234 Z M12.679,41.416 L13.516,38.905 L14.353,41.416 C13.8072483,41.5813426 13.2247517,41.5813426 12.679,41.416 Z M7.564,38.781 C7.75,38.223 8.029,37.324 8.37,36.363 C8.711,37.355 9.021,38.254 9.176,38.812 C8.618,38.812 8.091,38.781 7.564,38.781 Z M31,59.52 C18.879,59.52 8.494,51.925 4.371,41.23 C5.177,41.23 6.045,41.261 6.913,41.261 C7.37722717,41.3897219 7.8572867,41.4523384 8.339,41.447 C8.742,41.447 9.145,41.416 9.486,41.323 C9.68283136,41.3186518 9.87971255,41.3290139 10.075,41.354 C10.013,41.54 10.013,41.602 10.013,41.664 C10.013,43.028 11.47,44.02 13.485,44.02 C15.438,44.02 16.864,43.09 16.926,41.788 C17.236,41.819 17.577,41.85 17.887,41.881 C26.133,42.78 26.691,44.268 26.691,44.33 C26.722,44.454 26.536,45.105 24.862,46.221 C21.359,48.639 20.15,50.096 20.46,51.615 C20.832,53.444 23.219,53.909 26.846,54.591 C27.869,54.777 29.016,54.994 30.194,55.273 C31.496,55.552 32.891,55.831 34.224,56.11 C36.642,56.606 39.122,57.102 41.106,57.691 C37.8749399,58.9041938 34.4513149,59.5238069 31,59.52 Z M31,0 C13.919,0 0,13.919 0,31 C0,48.081 13.919,62 31,62 C48.081,62 62,48.081 62,31 C62,13.919 48.081,0 31,0 Z"/>
  </g>
</svg>
