<svg xmlns="http://www.w3.org/2000/svg" width="51" height="24" viewBox="0 0 51 24">
  <g fill="#90A4B3">
    <path d="M23.1710191,9.7894251 L14.2751453,0.960825911 C13.045294,-0.258898785 11.0518707,-0.258898785 9.8220194,0.960825911 L0.926390394,9.7894251 C-0.30302032,11.009587 -0.30302032,12.9885182 0.926390394,14.2086802 L9.82206835,23.0372794 C11.0519196,24.25783 13.045343,24.25783 14.2751943,23.0372794 L23.1710191,14.2086316 C24.4000382,12.9885182 24.4000382,11.0095385 23.1710191,9.7894251 Z M7.02493134,16.9850526 C4.25055757,14.2312227 4.25055757,9.76727126 7.02493134,7.01348988 C9.79930511,4.26009717 14.2981044,4.26009717 17.0724781,7.01348988 C19.8470477,9.76731984 19.8470477,14.2312713 17.0724781,16.9850526 C14.2981044,19.7384453 9.79930511,19.7384453 7.02493134,16.9850526 Z"/>
    <path d="M15.0523753 9.01826721C13.3938898 7.37174089 10.7037155 7.37174089 9.0445936 9.01826721 7.38552063 10.6644049 7.38552063 13.3340891 9.0445936 14.9802267 10.7037155 16.6271903 13.3938898 16.6271903 15.0523753 14.9802267 16.711693 13.3340891 16.711693 10.6644049 15.0523753 9.01826721zM32.769498 14.9155578C32.1424407 15.537956 31.3887603 15.8490566 30.5089037 15.8490566 29.6287989 15.8490566 28.8751682 15.537956 28.2481108 14.9155578 27.6303889 14.3024226 27.3214286 13.5547761 27.3214286 12.6722734 27.3214286 11.7992307 27.6303889 11.0515842 28.2481108 10.4289396 28.8751682 9.81600155 29.6288486 9.50943396 30.5089037 9.50943396 31.3887603 9.50943396 32.1424407 9.81600155 32.769498 10.4289396 33.3874683 11.0515842 33.6964286 11.7991815 33.6964286 12.6722734 33.6964286 13.5547761 33.3874683 14.3024226 32.769498 14.9155578zM31.8710204 12.6722734C31.8710204 12.2914535 31.7396304 11.9710899 31.4776944 11.7109854 31.2062245 11.4508809 30.8831618 11.3207054 30.5089037 11.3207054 30.1342484 11.3207054 29.8113844 11.4508809 29.5399145 11.7109854 29.2777799 11.9710899 29.1468367 12.2914535 29.1468367 12.6722734 29.1468367 13.0440272 29.2778295 13.3643908 29.5399145 13.6337584 29.8113844 13.9033231 30.1342484 14.0377851 30.5089037 14.0377851 30.8831618 14.0377851 31.2062245 13.9033231 31.4776944 13.6337584 31.7396304 13.3643908 31.8710204 13.0440272 31.8710204 12.6722734L31.8710204 12.6582802 31.8710204 12.6722734z"/>
    <polygon points="37.339 11.429 35.977 11.429 35.977 15.849 34.152 15.849 34.152 7.698 35.977 7.698 35.977 9.793 37.339 9.793 37.339 11.429 37.339 11.415"/>
    <path d="M42.7873624 14.9155578C42.1601113 15.537956 41.4066354 15.8490566 40.5267857 15.8490566 39.6466877 15.8490566 38.8930629 15.537956 38.2660104 14.9155578 37.6482933 14.3024226 37.3392857 13.5547761 37.3392857 12.6722734 37.3392857 11.7992307 37.6482436 11.0515842 38.2660104 10.4289396 38.8930629 9.81600155 39.6467374 9.50943396 40.5267857 9.50943396 41.4066354 9.50943396 42.1601113 9.81600155 42.7873624 10.4289396 43.4052782 11.0515842 43.7142857 11.7991815 43.7142857 12.6722734 43.7142857 13.5547761 43.4053278 14.3024226 42.7873624 14.9155578zM41.8888918 12.6722734C41.8888918 12.2914535 41.7577014 11.9710899 41.4955688 11.7109854 41.224101 11.4508809 40.9010409 11.3207054 40.5267857 11.3207054 40.1521333 11.3207054 39.8292718 11.4508809 39.557804 11.7109854 39.2956714 11.9710899 39.1647293 12.2914535 39.1647293 12.6722734 39.1647293 13.0440272 39.2957211 13.3643908 39.557804 13.6337584 39.8292718 13.9033231 40.1521333 14.0377851 40.5267857 14.0377851 40.9009912 14.0377851 41.224101 13.9033231 41.4955688 13.6337584 41.7577014 13.3643908 41.8888918 13.0440272 41.8888918 12.6722734L41.8888918 12.6582802 41.8888918 12.6722734zM49.0482495 17.0859954C49.0482495 17.0859954 48.6167505 18.5588808 47.1257958 18.5588808 45.634841 18.5588808 44.6746147 18.5588808 44.6746147 18.5588808L45.0713783 16.741121C45.0713783 16.741121 45.9693169 16.741121 46.4951197 16.741121 47.0209225 16.741121 47.164328 16.2684657 47.164328 16.2684657L48.8633873 10.4469526 50.979169 10.4469526 49.0482495 17.0859954z"/>
    <path d="M44.8424427,14.2248155 C44.8424427,14.2248155 45.2739416,15.6977009 46.7648964,15.6977009 C48.2558511,15.6977009 49.2160262,15.6977009 49.2160262,15.6977009 L48.8192626,13.8799411 C48.8192626,13.8799411 47.9213239,13.8799411 47.3955211,13.8799411 C46.8697183,13.8799411 46.7263129,13.4072858 46.7263129,13.4072858 L45.8700362,10.4469526 L43.7542545,10.4469526 L44.8424427,14.2248155 Z"/>
  </g>
</svg>
