<svg xmlns="http://www.w3.org/2000/svg" width="95" height="25" viewBox="0 0 95 25">
  <path fill="#242B35" d="M23.7602642,28.934431 C22.0865364,28.6941611 20.6226362,27.9957718 19.5047347,26.9042268 C18.5722629,25.9937409 17.9676843,24.9924356 17.5220171,23.620443 C16.8262201,21.4784214 16.8259757,18.7244499 17.5213959,16.6261151 C18.1953414,14.5925774 19.7127822,12.8224754 21.5699575,11.9034485 C24.1418733,10.6307309 27.7617557,10.7106781 30.1437695,12.0928065 C32.2875065,13.3366781 33.5860827,15.5468671 33.9473457,18.5665307 C34.0576518,19.4885406 33.986083,21.4359348 33.8123475,22.2398162 C33.1012757,25.5299751 31.0303293,27.8283393 27.9962374,28.6946123 C27.6692899,28.7879596 27.1622905,28.897173 26.8695716,28.9373072 C26.2501531,29.022236 24.3597349,29.0204873 23.7602635,28.9344289 Z M24.6953042,27.8508959 C25.1785665,28.0592107 26.0630385,28.0476037 26.5630464,27.8263838 C27.9423156,27.2161517 28.6817566,25.4602139 28.9228158,22.222678 C29.2587474,17.7109745 28.4801417,13.9453444 26.9375294,12.6210793 C26.2429403,12.0248053 25.1626927,11.8296183 24.3832102,12.1595458 C23.2460194,12.6408788 22.5156644,14.0657764 22.1699188,16.4775996 C21.9237132,18.1950603 21.9492301,21.7001227 22.2194135,23.2762947 C22.645621,25.762667 23.4960332,27.3339384 24.6953042,27.8508959 Z M53.3405018,28.9316756 C52.6556605,28.8625773 50.5628494,28.5159639 49.8318029,28.3505611 L49.3260408,28.2361308 L49.36548,25.5481942 C49.4604349,19.0767162 49.4723783,15.5439455 49.4109176,12.108305 C49.3507104,8.74271326 49.3331526,8.38686279 49.2027416,7.88901716 C49.0374987,7.25820388 48.7989972,6.81818108 48.5121436,6.61490048 C48.4007064,6.53593031 48.0979435,6.42401519 47.8393382,6.36620129 C46.9797571,6.17403333 47.0264496,6.2048478 47.003501,5.81458628 C46.9902818,5.58978322 47.0147568,5.4412723 47.072534,5.39570258 C47.1499911,5.33461225 54.2001927,3.99624898 54.4247481,4.0000079 C54.489274,4.00108791 54.4984139,4.89823962 54.4653561,7.98615092 C54.4418938,10.177763 54.4388799,11.9708999 54.4586599,11.9708999 C54.4784378,11.9708999 54.7360546,11.8598841 55.031141,11.7241986 C55.9206217,11.3152005 56.7404537,11.1377335 57.9311986,11.0964302 C58.7239882,11.0689306 59.0912162,11.0861516 59.4979629,11.1699042 C62.157312,11.7174843 64.1252928,13.883765 64.8130356,17.0205389 C64.9924455,17.8388209 65.0591921,19.8724548 64.9400729,20.8910825 C64.838546,21.7592741 64.5488897,22.9290515 64.2474653,23.6881799 C63.1100705,26.5526766 60.6697362,28.4214704 57.4324206,28.9071028 C56.686717,29.0189663 54.345026,29.0330284 53.3405032,28.9316756 Z M54.4724397,27.9624169 C55.0346711,28.0286157 55.6660148,28.0054757 55.9606043,27.9078722 C56.4172032,27.7565913 57.0011637,27.2936733 57.3527979,26.8042498 C58.0781524,25.7946638 58.5991995,24.2319052 58.8855527,22.2071105 C59.0226904,21.2374123 59.041195,18.5122989 58.9159698,17.7276972 C58.5315316,15.3189909 57.7912803,13.8473159 56.6644675,13.2515446 C56.1033654,12.9548771 55.3118884,12.9181206 54.5767031,13.154588 L54.0783986,13.3148642 L54.021945,15.5039073 C53.9507709,18.2637501 54.0664168,27.6972828 54.1731829,27.8408097 C54.2119124,27.8928741 54.3465779,27.9475974 54.4724397,27.9624169 Z M72.6596411,28.8975417 C69.3328788,28.288458 66.9537046,25.8938163 66.1763004,22.3720362 C66.076311,21.9190677 66.0320933,21.4122365 66.0070205,20.4316323 C65.9673493,18.8802617 66.0916604,17.9173745 66.4860725,16.7209623 C67.2433929,14.4236996 68.6006714,12.7958388 70.5722421,11.8201797 C72.6532371,10.7903714 75.4983657,10.7229225 77.3400259,11.6597367 C79.4135441,12.7144949 80.6336551,14.8205324 80.9431791,17.8791492 C80.9848486,18.2909498 81.0090027,18.7810266 80.9968586,18.9682087 L80.9747698,19.3085397 L76.0125156,19.3259776 L71.0502614,19.3434148 L71.0691783,19.9385736 C71.1129937,21.3171806 71.4049888,22.536559 71.9451637,23.5967115 C72.190688,24.0785808 72.3860868,24.3412926 72.8608136,24.8278006 C73.9332372,25.9268352 75.000095,26.3523648 76.6830905,26.3523648 C77.9033692,26.3523648 78.7809103,26.1051844 79.6986524,25.5029603 C79.9557039,25.3342793 80.2161619,25.1962676 80.2774457,25.1962676 C80.4175355,25.1962676 80.7400686,25.6177315 80.7400686,25.8007882 C80.7400686,26.1007308 79.7779613,27.0679558 78.8395521,27.7114157 C78.0709861,28.2384143 76.8521156,28.7155905 75.7951957,28.9032504 C75.0549749,29.0346795 73.3921436,29.0316519 72.6596411,28.8975397 Z M71.0111248,17.9705768 C71.0466013,18.0316459 73.9644631,17.9908826 75.3231148,17.9103373 L76,17.8702096 L75.960599,16.7870632 C75.8807882,14.5928504 75.4780114,13.1104696 74.7740778,12.4201614 C74.5118079,12.162972 74.1594246,12.0008592 73.8607865,12.0000007 C73.7867421,11.9997881 73.5684875,12.0494292 73.3757779,12.1103141 C73.0957599,12.1987805 72.9390931,12.3135086 72.5957432,12.6815383 C71.9574325,13.3657355 71.4935561,14.4768379 71.2038409,16.0154937 C71.0836398,16.6538503 70.9621566,17.8862863 71.0111248,17.9705768 Z M86.2332527,28.9833039 C85.0166884,28.8531971 83.0805703,28.430268 82.4359236,28.1538079 L82.1210603,28.0187794 L82.0781235,26.4623383 C82.0545109,25.6062954 82.0272725,24.4617239 82.0175967,23.9188455 L82,22.9317944 L82.188709,22.8415532 C82.2924936,22.7919204 82.5019677,22.7455564 82.6541927,22.7385213 L82.9309742,22.7257312 L83.1667854,23.3048153 C84.0867658,25.5640281 85.1657178,26.7821578 86.5749788,27.1526436 C87.112577,27.293975 88.1205343,27.2952177 88.5185194,27.1550418 C89.6333477,26.7623817 90.2446787,25.9201678 90.249998,24.7696397 C90.2562801,23.4070597 89.5056365,22.752366 86.6697567,21.6471036 C84.9128152,20.9623495 84.2999341,20.6098964 83.5701854,19.8646175 C82.7829759,19.0606526 82.4051413,18.1455013 82.3342081,16.8709456 C82.2484915,15.3307686 82.7316333,14.0323788 83.8021795,12.9259384 C84.87952,11.8124778 86.2781288,11.2090031 88.1833622,11.0355329 C89.8611287,10.8827735 92.436465,11.2378126 93.7857797,11.8078893 L94.0319495,11.9118927 L94.0758492,13.2991324 C94.0999943,14.0621136 94.1249657,15.0849092 94.1313434,15.5720115 L94.142938,16.4576508 L93.8123489,16.5801196 C93.2896639,16.7737531 93.2553377,16.7494858 92.9645785,15.9808451 C92.1495775,13.8263109 91.2026659,12.8068489 89.7272174,12.4954387 C88.8280157,12.3056525 88.0768941,12.5096854 87.5309517,13.0920303 C87.1050316,13.546349 86.9388562,13.9498016 86.8985893,14.6272964 C86.8549696,15.3613509 86.98645,15.7581206 87.4359621,16.2488461 C87.9899962,16.8536889 88.8976924,17.375795 90.70584,18.1296822 C92.9205013,19.0530615 93.9772269,19.8369818 94.5516915,20.9826986 C94.9247804,21.7267777 95.0304085,22.321089 94.9928798,23.465031 C94.9647127,24.3234217 94.9371807,24.4998707 94.7414521,25.0762255 C94.1033129,26.9553025 92.6627164,28.1923894 90.4372526,28.7723708 C89.6834475,28.9688215 89.5758459,28.9789865 88.0769146,28.9953609 C87.2131249,29.0047969 86.383477,28.9993738 86.2332527,28.9833066 L86.2332527,28.9833039 Z M0.088574926,27.9608926 C0.0331697831,27.9380026 0.00527645814,27.7679641 0.00527645814,27.4531023 C0.00527645814,26.8877838 -0.0299158117,26.9130952 1.03817746,26.7101985 C1.85737764,26.5545821 2.15046143,26.3954472 2.51221228,25.9098449 C3.21360424,24.9683203 3.36520479,23.1554577 3.36677613,15.6908262 C3.36825218,8.68065219 3.23635072,7.20596173 2.51095221,6.12250877 C2.18911472,5.64181341 1.64674694,5.3807976 0.738302975,5.26941791 L0.0385958453,5.18363006 L0.0192979226,4.62434292 L0,4.06505577 L0.219214245,4.02506088 C0.339782047,4.003064 4.57586672,3.99376922 9.63273611,4.00440537 L18.8270444,4.02374475 L18.8701537,4.29665894 C18.8938638,4.44676175 18.9327788,5.98640237 18.9566315,7.71808248 L19,10.8665909 L18.5259438,11.0140165 C17.8123584,11.2359325 17.816676,11.2386358 17.495669,10.3689997 C16.707179,8.23291054 15.8030308,7.0020614 14.5658486,6.38052867 C13.7125691,5.95186031 13.3180396,5.90002981 10.9083202,5.90002981 L8.81118464,5.90002981 L8.77503378,6.25822968 C8.70724082,6.92994246 8.60019696,11.2508951 8.60093865,13.2857699 L8.60167834,15.3155692 L9.218087,15.311953 C9.55711176,15.3099608 10.2256266,15.2844194 10.7036759,15.2551876 C11.4223131,15.2112436 11.6358377,15.1721855 11.9364932,15.0296806 C12.675202,14.6795461 13.177761,13.9089326 13.4856494,12.6542376 L13.6446009,12.0064846 L14.1885232,11.9866683 L14.7324456,11.966852 L14.7324456,16.0660832 L14.7324456,20.1653144 L14.1883147,20.1454981 L13.6441837,20.1256818 L13.4897337,19.4775106 C13.1995372,18.2596603 12.6410569,17.3877916 11.9509458,17.07524 C11.6322372,16.9308971 10.8436226,16.8488591 9.31804516,16.8013468 L8.60167834,16.779036 L8.60167834,18.3190458 C8.60167834,19.9972408 8.69178595,22.2675342 8.80729627,23.4996592 C8.96832354,25.2173115 9.39702877,26.1664675 10.1669418,26.5099225 C10.3139583,26.5755065 10.7791003,26.6820344 11.2005905,26.746651 C11.6220808,26.8112682 12.0194145,26.8918823 12.0835543,26.9257939 C12.2462162,27.011796 12.2558155,27.9013891 12.0947636,27.9646649 C11.968725,28.0141845 0.208624544,28.0104893 0.088574926,27.9608919 L0.088574926,27.9608926 Z M34.080813,28.9566618 C34.0194216,28.9162374 33.9993619,28.7558141 34.0135053,28.4183859 L34.0336538,27.9376975 L34.2692308,27.8858543 C34.3987981,27.8573405 34.6770979,27.8007443 34.8876754,27.7600847 C35.5393794,27.6342491 35.9139104,27.2686654 36.1246535,26.5526585 C36.2963439,25.9693312 36.3720294,24.1031718 36.3759804,20.3557302 C36.3808131,15.772474 36.2884245,14.6901238 35.8399998,14.0765695 C35.5969645,13.7440376 35.4217707,13.649471 34.8320563,13.5325 C34.5410118,13.4747706 34.2347356,13.412874 34.1514423,13.394952 C34.0165597,13.3659298 34,13.3205145 34,12.9796243 C34,12.6481484 34.0202852,12.5882613 34.1514423,12.5325234 C34.3528909,12.4469139 41.0207308,11.0695591 41.2337219,11.0695591 L41.3998871,11.0695591 L41.3673028,12.0955593 C41.3493808,12.6598594 41.3207292,13.481529 41.3036324,13.9214918 L41.272547,14.7214241 L41.5141056,14.2712347 C42.2873936,12.8300711 43.1546061,11.9354581 44.3077733,11.3892976 C44.9408035,11.0894837 45.363168,11 46.1452618,11 C47.0727773,11 48,11.3127615 48,11.625622 C48,11.8359896 46.3658608,16.2983134 46.2757331,16.334055 C46.2317663,16.3514915 45.9126774,16.2253595 45.5666465,16.0537636 C44.8450004,15.6958989 44.1679658,15.5209085 43.5107513,15.5223846 C42.6923267,15.5242209 41.7780958,15.8357668 41.417134,16.235831 C41.2627349,16.4069553 41.262008,16.4172445 41.2236473,18.9729198 C41.1856582,21.5038313 41.2672735,24.5910081 41.4049964,25.8326526 C41.5223238,26.8904247 41.7942806,27.4111974 42.3559666,27.653675 C42.5433513,27.7345683 43.7289163,27.9024379 44.1158117,27.9028595 C44.1451337,27.9028914 44.1602779,28.1455061 44.1494656,28.4420027 L44.1298077,28.9810876 L39.1490385,28.9976684 C36.4096154,29.0067876 34.1289138,28.9883349 34.080813,28.9566618 Z" transform="translate(0 -4)"/>
</svg>
