<svg xmlns="http://www.w3.org/2000/svg" width="115" height="31" viewBox="0 0 115 31">
  <g fill="#242B35">
    <path d="M11.7111425,17.8944415 L11.0790492,14.0779821 L8.4810383,14.0779821 L6.35441911,1.23255937 L0.142405513,1.23255937 L2.26902471,14.0779821 L0.208471768,14.0779821 L0.840565132,17.8944415 L2.93147284,17.8944415 C3.90461093,23.7777721 6.21335872,24.7314337 10.1844764,24.7314337 L12.8431967,24.7314337 L12.153965,20.5650566 C10.1219812,20.5650566 9.40596588,20.5650566 9.11313167,17.8944415 L11.7111425,17.8944415 Z" transform="matrix(1 0 0 -1 0 25.964)"/>
    <polygon points="16.386 16.312 12.405 24.632 19.539 24.632 20.865 20.272 23.74 24.632 30.781 24.632 23.897 16.346 27.989 7.193 20.824 7.193 19.356 12.185 16.193 7.193 9.089 7.193" transform="matrix(1 0 0 -1 0 31.825)"/>
    <path d="M35.4521794,12.1348745 C35.4195446,11.9379403 35.4920664,11.6416012 35.7223231,11.3790223 C35.9525798,11.1145679 36.3822714,10.9513938 37.0186502,10.9513938 C38.8371341,10.9513938 39.7092087,11.8385354 40.1098916,14.3067772 L40.3401483,15.7190766 C39.2704519,14.7325301 37.7619985,13.8453885 35.4866273,13.8453885 C31.0899935,13.8453885 29.1826703,17.5946402 29.898823,22.0040903 C30.5895931,26.2466153 33.2021907,30.7535947 38.4183208,30.7535947 C40.327457,30.7535947 41.9410669,29.6676434 42.7895719,27.9890139 L43.15762,30.2603215 L48.7073503,30.2603215 L46.4519225,16.3773994 C45.6124827,11.2139727 44.408621,7.16838196 36.5853324,7.16838196 C30.9757717,7.16838196 29.0049919,9.60286356 29.1137746,12.1348745 L35.4521794,12.1348745 Z M36.1955278,21.93657 C35.9181319,20.226056 36.4439149,18.6149468 38.1372988,18.5830623 C40.0609394,18.4836574 41.0834967,20.2917007 41.3826491,22.1353798 C41.6926798,24.042828 41.3210056,25.8508714 39.3194041,25.8508714 C37.4138939,25.8846315 36.5599498,24.1741175 36.1955278,21.93657 Z" transform="matrix(1 0 0 -1 0 37.922)"/>
    <path d="M65.8678046,7.82012886 L59.8958569,7.82012886 L60.3158173,10.3252212 C58.3140677,7.9833029 56.626826,7.332461 53.9664602,7.332461 C50.4384229,7.332461 48.5310257,9.60948051 49.350596,14.4861591 L51.089639,24.8606902 L57.5259482,24.8606902 L55.9830101,15.6580454 C55.5889503,13.3161271 56.2364663,12.5670099 57.7849546,12.5670099 C59.6405505,12.5670099 60.4749212,14.0318677 60.9152321,16.6649033 L62.2916661,24.8606902 L68.7261253,24.8606902 L65.8678046,7.82012886 Z" transform="matrix(1 0 0 -1 0 32.193)"/>
    <path d="M68,0.102839694 L70.9627593,17.0471266 L77.6342414,17.0471266 L74.6714821,0.102839694 L68,0.102839694 Z M72.180463,24 L78.8500274,24 L78.0139348,19.2135616 L71.3424528,19.2135616 L72.180463,24 Z" transform="matrix(1 0 0 -1 0 24.103)"/>
    <path d="M88.1979612,1.57829381 L88.5768701,3.8424488 C86.7299179,1.77189012 85.2399088,1.09338114 83.187943,1.09338114 C78.3518202,1.09338114 76.5433079,4.94133836 77.3432268,9.72777676 C78.282262,15.3531325 81.8626769,19.0074934 85.6883759,19.0074934 C87.7092236,19.0074934 89.0308287,18.4912366 90.0979973,16.8097143 L91.4415682,24.8614772 L97.809801,24.8614772 L93.9236963,1.57829381 L88.1979612,1.57829381 Z M89.1571317,9.88818514 C89.4701434,11.7651475 89.1974022,13.8025182 87.0850306,13.8025182 C84.972659,13.8025182 84.0354543,11.6674275 83.7224426,9.79230887 C83.4259051,8.01306655 83.5082766,5.94435165 85.5895301,5.94435165 C87.7934256,5.94435165 88.8276456,7.91719028 89.1571317,9.88818514 Z" transform="matrix(1 0 0 -1 0 25.955)"/>
    <path d="M102.52082,14.5468778 C102.185503,12.5760981 103.435154,11.2707058 105.1209,11.2707058 C106.132347,11.2707058 107.132801,11.7493496 107.759458,12.733833 L113.857461,12.733833 C112.052614,8.60009073 107.774117,7.23305491 104.036159,7.23305491 C98.8873041,7.23305491 95.4223633,10.2862224 96.3733439,15.8830919 C97.3023365,21.3512352 101.850186,24.8485987 106.99904,24.8485987 C112.94496,24.8485987 115.805231,20.5879433 114.687508,14.5468778 L102.52082,14.5468778 Z M108.884511,17.9173282 C109.144702,19.443912 108.059961,20.8109478 106.557448,20.8109478 C104.657319,20.8109478 103.396675,19.6977383 103.092507,17.9173282 L108.884511,17.9173282 Z" transform="matrix(1 0 0 -1 0 32.082)"/>
  </g>
</svg>
