<svg xmlns="http://www.w3.org/2000/svg" width="52" height="52" viewBox="0 0 52 52">
  <g fill="none" fill-rule="evenodd">
    <rect width="52" height="52" opacity=".05" rx="5"/>
    <g stroke="#242B35" stroke-linecap="round" stroke-linejoin="round" stroke-width="2" transform="translate(1 1)">
      <path d="M9 50L9 50C4.02943725 50 6.08718376e-16 45.9705627 0 41M50 41L50 41C50 45.9705627 45.9705627 50 41 50M41 0L41 0C45.9705627-9.13077564e-16 50 4.02943725 50 9M0 9L0 9C-6.08718376e-16 4.02943725 4.02943725 9.13077564e-16 9 0"/>
    </g>
    <rect width="14" height="14" x="19" y="19" stroke="#E62249" stroke-width="2" rx="3"/>
    <path fill="#E62249" d="M22.2803301,27.2803301 L24.7196699,29.7196699 C25.0125631,30.0125631 25.0125631,30.4874369 24.7196699,30.7803301 C24.5790176,30.9209824 24.3882522,31 24.1893398,31 L22.25,31 C21.5596441,31 21,30.4403559 21,29.75 L21,27.8106602 C21,27.3964466 21.3357864,27.0606602 21.75,27.0606602 C21.9489124,27.0606602 22.1396778,27.1396778 22.2803301,27.2803301 Z"/>
    <g fill="#E62249" transform="translate(16 16)">
      <g transform="translate(0 5)">
        <path d="M.5 8L2 8 2 10 .5 10C.223857625 10 3.38176876e-17 9.77614237 0 9.5L0 8.5C-3.38176876e-17 8.22385763.223857625 8 .5 8zM.5 4L2 4 2 6 .5 6C.223857625 6 3.38176876e-17 5.77614237 0 5.5L0 4.5C-3.38176876e-17 4.22385763.223857625 4 .5 4zM.5 0L2 0 2 2 .5 2C.223857625 2 3.38176876e-17 1.77614237 0 1.5L0 .5C-3.38176876e-17.223857625.223857625 5.07265313e-17.5 0z"/>
      </g>
      <g transform="translate(5 18)">
        <path d="M0 0L2 0 2 1.5C2 1.77614237 1.77614237 2 1.5 2L.5 2C.223857625 2 3.38176876e-17 1.77614237 0 1.5L0 0zM4 0L6 0 6 1.5C6 1.77614237 5.77614237 2 5.5 2L4.5 2C4.22385763 2 4 1.77614237 4 1.5L4 0zM8 0L10 0 10 1.5C10 1.77614237 9.77614237 2 9.5 2L8.5 2C8.22385763 2 8 1.77614237 8 1.5L8 0z"/>
      </g>
      <g transform="translate(18 5)">
        <path d="M0 0L1.5 0C1.77614237-5.07265313e-17 2 .223857625 2 .5L2 1.5C2 1.77614237 1.77614237 2 1.5 2L0 2 0 0zM0 4L1.5 4C1.77614237 4 2 4.22385763 2 4.5L2 5.5C2 5.77614237 1.77614237 6 1.5 6L0 6 0 4zM0 8L1.5 8C1.77614237 8 2 8.22385763 2 8.5L2 9.5C2 9.77614237 1.77614237 10 1.5 10L0 10 0 8z"/>
      </g>
      <g transform="translate(5)">
        <path d="M.5 0L1.5 0C1.77614237-5.07265313e-17 2 .223857625 2 .5L2 2 0 2 0 .5C-3.38176876e-17.223857625.223857625 5.07265313e-17.5 0zM4.5 0L5.5 0C5.77614237-5.07265313e-17 6 .223857625 6 .5L6 2 4 2 4 .5C4 .223857625 4.22385763 5.07265313e-17 4.5 0zM8.5 0L9.5 0C9.77614237-5.07265313e-17 10 .223857625 10 .5L10 2 8 2 8 .5C8 .223857625 8.22385763 5.07265313e-17 8.5 0z"/>
      </g>
    </g>
    <rect width="34" height="34" x="9" y="9" stroke="#242B35" stroke-width="2" rx="7.5"/>
  </g>
</svg>
