<svg xmlns="http://www.w3.org/2000/svg" width="34" height="26" viewBox="0 0 34 26">
  <g fill="none" fill-rule="evenodd" stroke-width="2" transform="translate(1 1)">
    <path stroke="#E62249" d="M3,7 L3,2 C3,0.8954305 3.8954305,2.02906125e-16 5,0 L6.61346214,8.8817842e-16 C8.01043009,6.31559571e-16 9.2225142,0.964228212 9.53663573,2.32542148 L12,13"/>
    <path stroke="#242B35" stroke-linecap="round" stroke-linejoin="round" d="M2,7 L4,7 C5.1045695,7 6,7.8954305 6,9 L6,14.4370907 C6,14.9893754 6.44771525,15.4370907 7,15.4370907 C7.14470002,15.4370907 7.28767644,15.4056878 7.41905818,15.3450501 L17.5809418,10.6549499 C18.0823939,10.4235105 18.6765199,10.642399 18.9079594,11.1438511 C18.9685971,11.2752329 19,11.4182093 19,11.5629093 L19,14.4370907 C19,14.9893754 19.4477153,15.4370907 20,15.4370907 C20.1447,15.4370907 20.2876764,15.4056878 20.4190582,15.3450501 L30.5809418,10.6549499 C31.0823939,10.4235105 31.6765199,10.642399 31.9079594,11.1438511 C31.9685971,11.2752329 32,11.4182093 32,11.5629093 L32,21 C32,22.6568542 30.6568542,24 29,24 L3,24 C1.34314575,24 1.13889744e-13,22.6568542 1.13686838e-13,21 L1.1235457e-13,9 C1.12219299e-13,7.8954305 0.8954305,7 2,7 Z"/>
  </g>
</svg>
