<svg xmlns="http://www.w3.org/2000/svg" xmlns:xlink="http://www.w3.org/1999/xlink" width="102" height="169" viewBox="0 0 102 169">
  <defs>
    <rect id="logo-a" width="120" height="180"/>
  </defs>
  <g fill="none" fill-rule="evenodd">
    <mask id="logo-b" fill="#fff">
      <use xlink:href="#logo-a"/>
    </mask>
    <path fill="#242B35" d="M-77,16 L87,16 L87,128 C87,133.522847 82.5228475,138 77,138 L-77,138 L-77,16 Z" mask="url(#logo-b)" transform="rotate(-45 5 77)"/>
    <g fill="#FFF" fill-rule="nonzero" mask="url(#logo-b)">
      <g transform="translate(14 46)">
        <path d="M30.8946921,13.0525668 L19.0335271,1.28110121 C17.3937254,-0.345198381 14.7358276,-0.345198381 13.0960259,1.28110121 L1.23518719,13.0525668 C-0.404027094,14.6794494 -0.404027094,17.3180243 1.23518719,18.9449069 L13.0960911,30.7163725 C14.7358929,32.3437733 17.3937906,32.3437733 19.0335924,30.7163725 L30.8946921,18.9448421 C32.5333842,17.3180243 32.5333842,14.6793846 30.8946921,13.0525668 Z M9.36657512,22.6467368 C5.6674101,18.9749636 5.6674101,13.0230283 9.36657512,9.35131984 C13.0657401,5.68012955 19.0641392,5.68012955 22.7633042,9.35131984 C26.4627303,13.0230931 26.4627303,18.9750283 22.7633042,22.6467368 C19.0641392,26.3179271 13.0657401,26.3179271 9.36657512,22.6467368 Z"/>
        <path d="M20.0698337 12.0243563C17.8585197 9.82898785 14.2716207 9.82898785 12.0594581 12.0243563 9.84736084 14.2192065 9.84736084 17.7787854 12.0594581 19.9736356 14.2716207 22.169587 17.8585197 22.169587 20.0698337 19.9736356 22.2822574 17.7787854 22.2822574 14.2192065 20.0698337 12.0243563zM43.692664 19.8874104C42.8565876 20.7172747 41.8516804 21.1320755 40.6785383 21.1320755 39.5050652 21.1320755 38.5002242 20.7172747 37.6641478 19.8874104 36.8405185 19.0698968 36.4285714 18.0730348 36.4285714 16.8963645 36.4285714 15.7323077 36.8405185 14.7354456 37.6641478 13.9052529 38.5002242 13.0880021 39.5051314 12.6792453 40.6785383 12.6792453 41.8516804 12.6792453 42.8565876 13.0880021 43.692664 13.9052529 44.5166244 14.7354456 44.9285714 15.732242 44.9285714 16.8963645 44.9285714 18.0730348 44.5166244 19.0698968 43.692664 19.8874104zM42.4946939 16.8963645C42.4946939 16.3886047 42.3195071 15.9614532 41.9702592 15.6146472 41.6082993 15.2678412 41.1775491 15.0942739 40.6785383 15.0942739 40.1789979 15.0942739 39.7485125 15.2678412 39.3865526 15.6146472 39.0370398 15.9614532 38.862449 16.3886047 38.862449 16.8963645 38.862449 17.3920363 39.037106 17.8191878 39.3865526 18.1783445 39.7485125 18.5377641 40.1789979 18.7170468 40.6785383 18.7170468 41.1775491 18.7170468 41.6082993 18.5377641 41.9702592 18.1783445 42.3195071 17.8191878 42.4946939 17.3920363 42.4946939 16.8963645L42.4946939 16.877707 42.4946939 16.8963645z"/>
        <polygon points="49.786 15.239 47.969 15.239 47.969 21.132 45.536 21.132 45.536 10.264 47.969 10.264 47.969 13.058 49.786 13.058 49.786 15.239 49.786 15.22"/>
        <path d="M57.0498165 19.8874104C56.2134818 20.7172747 55.2088472 21.1320755 54.0357143 21.1320755 52.8622503 21.1320755 51.8574171 20.7172747 51.0213472 19.8874104 50.1977243 19.0698968 49.7857143 18.0730348 49.7857143 16.8963645 49.7857143 15.7323077 50.1976581 14.7354456 51.0213472 13.9052529 51.8574171 13.0880021 52.8623165 12.6792453 54.0357143 12.6792453 55.2088472 12.6792453 56.2134818 13.0880021 57.0498165 13.9052529 57.8737042 14.7354456 58.2857143 15.732242 58.2857143 16.8963645 58.2857143 18.0730348 57.8737704 19.0698968 57.0498165 19.8874104zM55.8518557 16.8963645C55.8518557 16.3886047 55.6769352 15.9614532 55.3274251 15.6146472 54.965468 15.2678412 54.5347212 15.0942739 54.0357143 15.0942739 53.5361777 15.0942739 53.1056957 15.2678412 52.7437387 15.6146472 52.3942286 15.9614532 52.2196391 16.3886047 52.2196391 16.8963645 52.2196391 17.3920363 52.3942948 17.8191878 52.7437387 18.1783445 53.1056957 18.5377641 53.5361777 18.7170468 54.0357143 18.7170468 54.534655 18.7170468 54.965468 18.5377641 55.3274251 18.1783445 55.6769352 17.8191878 55.8518557 17.3920363 55.8518557 16.8963645L55.8518557 16.877707 55.8518557 16.8963645zM65.397666 22.7813272C65.397666 22.7813272 64.822334 24.7451744 62.8343944 24.7451744 60.8464547 24.7451744 59.5661529 24.7451744 59.5661529 24.7451744L60.095171 22.3214947C60.095171 22.3214947 61.2924225 22.3214947 61.993493 22.3214947 62.6945634 22.3214947 62.8857706 21.6912876 62.8857706 21.6912876L65.1511831 13.9292701 67.9722254 13.9292701 65.397666 22.7813272z"/>
        <path d="M59.7899235,18.9664206 C59.7899235,18.9664206 60.3652555,20.9302678 62.3531952,20.9302678 C64.3411348,20.9302678 65.6213682,20.9302678 65.6213682,20.9302678 L65.0923501,18.5065881 C65.0923501,18.5065881 63.8950986,18.5065881 63.1940282,18.5065881 C62.4929577,18.5065881 62.3017505,17.876381 62.3017505,17.876381 L61.1600483,13.9292701 L58.339006,13.9292701 L59.7899235,18.9664206 Z"/>
      </g>
    </g>
  </g>
</svg>
