<svg xmlns="http://www.w3.org/2000/svg" width="16" height="13" viewBox="0 0 16 13">
  <path fill="#8493A8" d="M156.897292,4.65196943 C156.917171,4.45095715 156.842272,4.25227888 156.695612,4.11699 L155.201681,2.27513227 L155.201681,2 L159.840336,2 L163.42577,10.047619 L166.577965,2 L171,2 L171,2.27513227 L169.722689,3.52851264 C169.612571,3.61441846 169.557947,3.75561078 169.580766,3.89535568 L169.580766,13.1046444 C169.557947,13.2443893 169.612571,13.3855815 169.722689,13.4714874 L170.970121,14.7248678 L170.970121,15 L164.695612,15 L164.695612,14.7248678 L165.987862,13.4409171 C166.114846,13.3109935 166.114846,13.2727807 166.114846,13.0740741 L166.114846,5.63021753 L162.521942,14.9694297 L162.036415,14.9694297 L157.853408,5.63021753 L157.853408,11.8894768 C157.818532,12.1526336 157.903929,12.417575 158.084967,12.6078778 L159.76564,14.6942975 L159.76564,14.9694297 L155,14.9694297 L155,14.6942975 L156.680672,12.6078778 C156.860392,12.4172595 156.94081,12.1505606 156.897292,11.8894768 L156.897292,4.65196943 Z" transform="translate(-155 -2)"/>
</svg>
