<svg xmlns="http://www.w3.org/2000/svg" width="34" height="26" viewBox="0 0 34 26">
  <g fill="none" fill-rule="evenodd" stroke-width="2" transform="translate(1 1)">
    <rect width="32" height="20" y="4" stroke="#242B35" stroke-linecap="round" stroke-linejoin="round" rx="3"/>
    <path stroke="#E62249" d="M15,9 L17,9 C17.5522847,9 18,9.44771525 18,10 L18,11 C18,11.5522847 18.4477153,12 19,12 L20,12 C20.5522847,12 21,12.4477153 21,13 L21,15 C21,15.5522847 20.5522847,16 20,16 L19,16 C18.4477153,16 18,16.4477153 18,17 L18,18 C18,18.5522847 17.5522847,19 17,19 L15,19 C14.4477153,19 14,18.5522847 14,18 L14,17 C14,16.4477153 13.5522847,16 13,16 L12,16 C11.4477153,16 11,15.5522847 11,15 L11,13 C11,12.4477153 11.4477153,12 12,12 L13,12 C13.5522847,12 14,11.5522847 14,11 L14,10 C14,9.44771525 14.4477153,9 15,9 Z"/>
    <path stroke="#242B35" d="M12,4 L12,2 C12,0.8954305 12.8954305,2.02906125e-16 14,0 L18,0 C19.1045695,-2.02906125e-16 20,0.8954305 20,2 L20,4"/>
  </g>
</svg>
