<svg xmlns="http://www.w3.org/2000/svg" width="158" height="35" viewBox="0 0 158 35">
  <g fill="#242B35">
    <path d="M116.462326,18.7499018 C112.969452,18.7499018 111.270697,16.8673613 111.270697,12.9930369 C111.270697,9.51884775 113.317849,7.35938829 116.612366,7.35938829 C117.244313,7.35938829 117.969081,7.39876667 118.955783,7.48641532 L118.955783,18.5199829 C117.967809,18.6762261 117.174379,18.7499018 116.462326,18.7499018 M116.494114,4.55209099 C110.96426,4.55209099 107.532419,7.7519018 107.532419,12.904118 C107.532419,18.2595775 110.699783,21.5864153 115.801134,21.5864153 L116.233452,21.5889559 C116.870485,21.5889559 117.752922,21.5686315 118.955783,21.4161991 L118.955783,27.8767937 L122.565637,27.8767937 L122.565637,5.1326045 C122.565637,5.1326045 119.138882,4.55209099 116.494114,4.55209099" transform="matrix(1 0 0 -1 0 32.429)"/>
    <polygon points="67.112 7 57.368 23.59 57.366 7 53.97 7 53.97 28 58.723 28 68.466 11.557 68.466 28 71.9 28 71.9 7" transform="matrix(1 0 0 -1 0 35)"/>
    <path d="M98.1275974,10.770445 C96.488604,10.770445 94.7771338,10.953364 92.7401536,11.3446072 L92.5252662,11.3865261 L92.5252662,14.3919856 L92.8469616,14.3208505 C94.6410808,13.9397694 96.189796,13.6107694 97.7397828,13.6107694 C98.9935046,13.6107694 101.91165,13.8089315 101.91165,15.6495532 C101.91165,17.1954721 99.893743,17.580364 98.2738225,17.8915802 L98.1721007,17.9106342 C97.8707497,17.9703369 97.5872,18.0262288 97.3430675,18.0884721 C94.9691338,18.7045532 92.4349881,19.6293099 92.4349881,22.8087964 C92.4349881,25.9095261 94.8928424,27.6879045 99.1778755,27.6879045 C101.232657,27.6879045 102.725425,27.4656072 103.925743,27.2877694 L104.510644,27.2001207 L104.510644,24.2886613 L104.197849,24.3432829 C102.842405,24.5935261 101.249187,24.8501207 99.7182728,24.8501207 C98.0195179,24.8501207 95.9965245,24.5325532 95.9965245,23.018391 C95.9965245,21.7646342 97.6495046,21.406418 99.5644185,20.9910396 C102.239703,20.4079856 105.55965,19.6839315 105.55965,16.0382559 C105.55965,12.6910937 102.852577,10.770445 98.1275974,10.770445" transform="matrix(1 0 0 -1 0 38.458)"/>
    <path d="M133.947168,18.8043964 C130.867539,18.8043964 128.958983,18.3521802 128.958983,16.0974505 C128.958983,13.4908559 131.39395,13.2723694 133.677605,13.2723694 C134.532069,13.2723694 136.066797,13.3803423 136.534718,13.4159099 L136.534718,18.7167477 C135.873526,18.7421532 134.154426,18.8043964 133.947168,18.8043964 M132.68836,10.7699369 C128.953897,10.7699369 125.496625,11.4253964 125.496625,16.1876396 C125.496625,21.3665315 130.842109,21.3665315 134.036175,21.3665315 C134.356599,21.3665315 135.858268,21.2979369 136.31983,21.2776126 C136.316016,24.183991 136.276599,24.8775586 132.057685,24.8775586 C130.385632,24.8775586 128.527936,24.546018 126.887672,24.2525856 L126.574877,24.1966937 L126.574877,27.0675045 L126.788493,27.1106937 C128.688148,27.4981261 130.520413,27.6873964 132.388281,27.6873964 C136.477499,27.6873964 139.941128,27.2745586 139.941128,22.2074505 L139.941128,11.1560991 L139.693181,11.1306937 C136.860228,10.8131261 134.610903,10.7699369 132.68836,10.7699369" transform="matrix(1 0 0 -1 0 38.457)"/>
    <path d="M83.3507179,18.8043964 C80.2710887,18.8043964 78.3625325,18.3521802 78.3625325,16.0974505 C78.3625325,13.4908559 80.7987709,13.2723694 83.081155,13.2723694 C83.9368901,13.2723694 85.470347,13.3803423 85.9395391,13.4159099 L85.9395391,18.7167477 C85.2770755,18.7421532 83.5592477,18.8043964 83.3507179,18.8043964 M82.0919099,10.7699369 C78.3574464,10.7699369 74.9001748,11.4253964 74.9001748,16.1876396 C74.9001748,21.3665315 80.2456583,21.3665315 83.4397245,21.3665315 C83.7601483,21.3665315 85.2618172,21.2979369 85.7233801,21.2776126 C85.7195656,24.183991 85.6814199,24.8775586 81.462506,24.8775586 C79.7891815,24.8775586 77.9314861,24.546018 76.2912212,24.2525856 L75.9784265,24.1966937 L75.9784265,27.0675045 L76.1920424,27.1106937 C78.0929695,27.4981261 79.9239629,27.6873964 81.7905589,27.6873964 C85.881049,27.6873964 89.3459497,27.2745586 89.3459497,22.2074505 L89.3459497,11.1560991 L89.0954596,11.1306937 C86.2637775,10.8131261 84.014453,10.7699369 82.0919099,10.7699369" transform="matrix(1 0 0 -1 0 38.457)"/>
    <path d="M152.138977,31.8218721 C148.476991,31.8218721 146.619295,29.9571153 146.619295,26.2771423 C146.619295,21.5453856 149.392487,20.5520342 151.720646,20.5520342 C152.286474,20.5520342 152.92605,20.5520342 154.334898,20.7298721 L154.334898,31.7202505 C153.229944,31.7951964 152.722607,31.8218721 152.138977,31.8218721 Z M154.301838,10.8319261 L154.301838,17.8819261 C152.892991,17.6850342 152.144064,17.6850342 151.541362,17.6850342 C150.113441,17.6850342 148.527852,17.9949802 147.297017,18.5145207 C144.550527,19.6539532 142.908991,22.5565207 142.908991,26.2771423 C142.908991,28.1380883 143.361653,31.5335207 146.394236,33.3639802 C147.911163,34.2722234 149.71164,34.6596559 152.409812,34.6596559 C153.377441,34.6596559 154.682024,34.5847099 155.944646,34.5123045 L157.990527,34.4068721 L157.990527,12.4642234 L154.301838,10.8319261 Z" transform="matrix(1 0 0 -1 0 45.492)"/>
    <path d="M11.62389,34 L1.7760909,9.14348278 C1.51351093,8.4766924 0.817148859,8 0,8 L10.3771603,8 C11.1932589,8 11.8896209,8.4766924 12.1532512,9.14348278 L22,34 L11.62389,34 Z" transform="matrix(-1 0 0 1 22 0)"/>
    <path d="M35.6233946,26 C34.8062067,26 34.1098114,25.5242549 33.8472189,24.8564748 L24,0 L34.3766054,0 L44.2238243,24.8564748 C44.4864168,25.5242549 45.1838625,26 46,26 L35.6233946,26 Z" transform="matrix(-1 0 0 1 70 0)"/>
    <path d="M21.5839682,24.8118316 L18,15.868984 L20.6807994,9.18816845 C20.9557249,8.49532086 21.6888594,8 22.5467594,8 L22.5478635,8 C23.4068676,8 24.1388981,8.49532086 24.4149277,9.18816845 L28,18.131016 L25.3180965,24.8118316 C25.0420669,25.5056818 24.3100364,26 23.4510324,26 C22.5931324,26 21.8599978,25.5056818 21.5839682,24.8118316" transform="matrix(-1 0 0 1 46 0)"/>
  </g>
</svg>
