<svg xmlns="http://www.w3.org/2000/svg" width="46" height="46" viewBox="0 0 46 46">
  <g fill="none" fill-rule="evenodd" transform="translate(0 1)">
    <path stroke="#242B35" stroke-linecap="round" stroke-linejoin="round" stroke-width="2" d="M1.74509337,30.8017051 C2.03446415,31.4995521 2.35720926,32.1800624 2.71133767,32.8412449 C3.06759064,33.5063941 3.45560461,34.1519829 3.87335251,34.7759843 C4.71278792,36.0298717 5.67228334,37.1965932 6.73539177,38.2597016 C7.7985002,39.32281 8.96522164,40.2823054 10.2191091,41.1217409 C10.8431105,41.5394888 11.4886993,41.9275027 12.1538485,42.2837557 C12.815031,42.6378841 13.4955413,42.9606292 14.1933883,43.25 M31.7967984,43.25 C32.4946455,42.9606292 33.1751557,42.6378841 33.8363382,42.2837557 C34.5014874,41.9275027 35.1470763,41.5394888 35.7710776,41.1217409 C37.0249651,40.2823054 38.1916865,39.32281 39.254795,38.2597016 C40.3179034,37.1965932 41.2773988,36.0298717 42.1168342,34.7759843 C42.5345821,34.1519829 42.9225961,33.5063941 43.2788491,32.8412449 C43.6329775,32.1800624 43.9557226,31.4995521 44.2450934,30.8017051 M44.2450934,13.1982949 C43.9557226,12.5004479 43.6329775,11.8199376 43.2788491,11.1587551 C42.9225961,10.4936059 42.5345821,9.84801711 42.1168342,9.22401573 C41.2773988,7.97012828 40.3179034,6.80340684 39.254795,5.74029841 C38.1916865,4.67718997 37.0249651,3.71769456 35.7710776,2.87825915 C35.1470763,2.46051125 34.5014874,2.07249728 33.8363382,1.71624431 C33.1751557,1.36211589 32.4946455,1.03937079 31.7967984,0.75 M14.1933883,0.75 C13.4955413,1.03937079 12.815031,1.36211589 12.1538485,1.71624431 C11.4886993,2.07249728 10.8431105,2.46051125 10.2191091,2.87825915 C8.96522164,3.71769456 7.7985002,4.67718997 6.73539177,5.74029841 C5.67228334,6.80340684 4.71278792,7.97012828 3.87335251,9.22401573 C3.45560461,9.84801711 3.06759064,10.4936059 2.71133767,11.1587551 C2.35720926,11.8199376 2.03446415,12.5004479 1.74509337,13.1982949"/>
    <path stroke="#242B35" stroke-linecap="round" stroke-width="2" d="M13,12 L29,12 C31.209139,12 33,13.790861 33,16 L33,28 C33,30.209139 31.209139,32 29,32 L17,32 C14.790861,32 13,30.209139 13,28 L13,18.9987793"/>
    <circle cx="23" cy="22" r="2" fill="#E62249"/>
  </g>
</svg>
