<svg xmlns="http://www.w3.org/2000/svg" width="97" height="46" viewBox="0 0 97 46">
  <g fill="#242B35">
    <path d="M44.2397723,18.7477492 L27.2519555,1.76019997 C24.9033961,-0.586733323 21.0966974,-0.586733323 18.748138,1.76019997 L1.76078859,18.7477492 C-0.586929528,21.0955238 -0.586929528,24.9032843 1.76078859,27.2510589 L18.7482315,44.2386081 C21.0967909,46.5871306 24.9034895,46.5871306 27.252049,44.2386081 L44.2397723,27.2509654 C46.5867426,24.9032843 46.5867426,21.0954304 44.2397723,18.7477492 Z M13.4067381,32.593216 C8.10871399,27.2944341 8.10871399,18.7051219 13.4067381,13.4064334 C18.7047621,8.1084928 27.2957988,8.1084928 32.5938228,13.4064334 C37.8922208,18.7052154 37.8922208,27.2945276 32.5938228,32.593216 C27.2957988,37.8911566 18.7047621,37.8911566 13.4067381,32.593216 Z"/>
    <path d="M28.6564894 17.3432324C25.5333758 14.2189225 20.4674769 14.2189225 17.3431649 17.3432324 14.218945 20.4668048 14.218945 25.532573 17.3431649 28.6561453 20.4674769 31.7812849 25.5333758 31.7812849 28.6564894 28.6561453 31.7811702 25.532573 31.7811702 20.4668048 28.6564894 17.3432324zM62.2551896 28.2330201C61.0748464 29.4111311 59.6561539 30 57.9999533 30 56.3432853 30 54.9246863 29.4111311 53.7443431 28.2330201 52.5815723 27.0724428 52 25.6572548 52 23.9868031 52 22.3342582 52.5815723 20.9190702 53.7443431 19.7404929 54.9246863 18.5802887 56.3433788 18 57.9999533 18 59.6561539 18 61.0748464 18.5802887 62.2551896 19.7404929 63.4184277 20.9190702 64 22.3341649 64 23.9868031 64 25.6572548 63.4184277 27.0724428 62.2551896 28.2330201zM60.5639376 23.9868031C60.5639376 23.2659656 60.3166151 22.6595631 59.8235592 22.1672224 59.312557 21.6748817 58.7044391 21.4284782 57.9999533 21.4284782 57.2947197 21.4284782 56.6869757 21.6748817 56.1759735 22.1672224 55.6825436 22.6595631 55.4360624 23.2659656 55.4360624 23.9868031 55.4360624 24.6904801 55.6826371 25.2968827 56.1759735 25.806757 56.6869757 26.3170044 57.2947197 26.5715218 57.9999533 26.5715218 58.7044391 26.5715218 59.312557 26.3170044 59.8235592 25.806757 60.3166151 25.2968827 60.5639376 24.6904801 60.5639376 23.9868031L60.5639376 23.9603162 60.5639376 23.9868031z"/>
    <polygon points="71 22.324 68.436 22.324 68.436 31 65 31 65 15 68.436 15 68.436 19.113 71 19.113 71 22.324 71 22.296"/>
    <path d="M81.2552031 28.2330201C80.0744953 29.4111311 78.6561877 30 77 30 75.343345 30 73.924757 29.4111311 72.744423 28.2330201 71.5816613 27.0724428 71 25.6572548 71 23.9868031 71 22.3342582 71.5815678 20.9190702 72.744423 19.7404929 73.924757 18.5802887 75.3434384 18 77 18 78.6561877 18 80.0744953 18.5802887 81.2552031 19.7404929 82.4183387 20.9190702 83 22.3341649 83 23.9868031 83 25.6572548 82.4184322 27.0724428 81.2552031 28.2330201zM79.5639644 23.9868031C79.5639644 23.2659656 79.3170177 22.6595631 78.8235917 22.1672224 78.3125935 21.6748817 77.7044803 21.4284782 77 21.4284782 76.2947719 21.4284782 75.6870327 21.6748817 75.1760344 22.1672224 74.6826084 22.6595631 74.4361291 23.2659656 74.4361291 23.9868031 74.4361291 24.6904801 74.6827019 25.2968827 75.1760344 25.806757 75.6870327 26.3170044 76.2947719 26.5715218 77 26.5715218 77.7043868 26.5715218 78.3125935 26.3170044 78.8235917 25.806757 79.3170177 25.2968827 79.5639644 24.6904801 79.5639644 23.9868031L79.5639644 23.9603162 79.5639644 23.9868031zM93.324715 33.0948749C93.324715 33.0948749 92.5034058 36 89.6655436 36 86.8276813 36 85 36 85 36L85.7551942 32.4146433C85.7551942 32.4146433 87.464318 32.4146433 88.4651237 32.4146433 89.4659293 32.4146433 89.7388852 31.482376 89.7388852 31.482376L92.9728509 20 97 20 93.324715 33.0948749z"/>
    <path d="M85.1916093,27.1949038 C85.1916093,27.1949038 86.0606476,30 89.0634282,30 C92.0662089,30 94,30 94,30 L93.2009187,26.5380938 C93.2009187,26.5380938 91.3924717,26.5380938 90.3335056,26.5380938 C89.2745395,26.5380938 88.9857211,25.6379263 88.9857211,25.6379263 L87.2611812,20 L83,20 L85.1916093,27.1949038 Z"/>
  </g>
</svg>
