<svg xmlns="http://www.w3.org/2000/svg" width="60" height="62" viewBox="0 0 60 62">
  <defs>
    <filter id="play-mini-a" width="671.4%" height="671.4%" x="-285.7%" y="-250%" filterUnits="objectBoundingBox">
      <feOffset dy="5" in="SourceAlpha" result="shadowOffsetOuter1"/>
      <feGaussianBlur in="shadowOffsetOuter1" result="shadowBlurOuter1" stdDeviation="12.5"/>
      <feColorMatrix in="shadowBlurOuter1" result="shadowMatrixOuter1" values="0 0 0 0 0.282352941   0 0 0 0 0.317647059   0 0 0 0 0.368627451  0 0 0 0.1 0"/>
      <feMerge>
        <feMergeNode in="shadowMatrixOuter1"/>
        <feMergeNode in="SourceGraphic"/>
      </feMerge>
    </filter>
  </defs>
  <path fill="#D85771" fill-rule="evenodd" d="M7,14 C3.13400675,14 0,10.8659932 0,7 C0,3.13400675 3.13400675,0 7,0 C10.8659932,0 14,3.13400675 14,7 C14,10.8659932 10.8659932,14 7,14 Z M6.52461526,4.65814313 C6.36689067,4.56094955 6.1852664,4.50948256 6,4.50948256 C5.44771525,4.50948256 5,4.95719781 5,5.50948256 L5,8.48949048 C5,8.67475688 5.05146699,8.85638115 5.14866057,9.01410574 C5.43839757,9.48428753 6.05443347,9.63056692 6.52461526,9.34082992 L8.94257605,7.85082595 C9.07549667,7.76891716 9.18739143,7.6570224 9.26930022,7.52410178 C9.55903723,7.05392 9.41275783,6.4378841 8.94257605,6.14814709 L6.52461526,4.65814313 Z" filter="url(#play-mini-a)" transform="translate(23 19)"/>
</svg>
