<svg xmlns="http://www.w3.org/2000/svg" xmlns:xlink="http://www.w3.org/1999/xlink" width="295" height="100" viewBox="0 0 295 100">
  <defs>
    <linearGradient id="progress-mobile-a" x1="100%" x2="0%" y1="50%" y2="50%">
      <stop offset="0%" stop-color="#B61D3B"/>
      <stop offset="100%" stop-color="#E62249"/>
    </linearGradient>
    <rect id="progress-mobile-c" width="2" height="64" x="212" rx="1"/>
    <filter id="progress-mobile-b" width="800%" height="121.9%" x="-350%" y="-7.8%" filterUnits="objectBoundingBox">
      <feOffset dy="2" in="SourceAlpha" result="shadowOffsetOuter1"/>
      <feGaussianBlur in="shadowOffsetOuter1" result="shadowBlurOuter1" stdDeviation="2"/>
      <feColorMatrix in="shadowBlurOuter1" values="0 0 0 0 0.450980392   0 0 0 0 0.521568627   0 0 0 0 0.623529412  0 0 0 0.16 0"/>
    </filter>
    <rect id="progress-mobile-e" width="2" height="64" x="81" rx="1"/>
    <filter id="progress-mobile-d" width="800%" height="121.9%" x="-350%" y="-7.8%" filterUnits="objectBoundingBox">
      <feOffset dy="2" in="SourceAlpha" result="shadowOffsetOuter1"/>
      <feGaussianBlur in="shadowOffsetOuter1" result="shadowBlurOuter1" stdDeviation="2"/>
      <feColorMatrix in="shadowBlurOuter1" values="0 0 0 0 0.450980392   0 0 0 0 0.521568627   0 0 0 0 0.623529412  0 0 0 0.16 0"/>
    </filter>
  </defs>
  <g fill="none" fill-rule="evenodd" transform="translate(0 2)">
    <rect width="295" height="52" y="6" fill="#F0F3F5" rx="26"/>
    <rect width="275" height="32" x="10" y="16" fill="#FFF" opacity=".6" rx="16"/>
    <path fill="url(#progress-mobile-a)" d="M26,16 L212,16 L212,48 L26,48 C17.163444,48 10,40.836556 10,32 L10,32 C10,23.163444 17.163444,16 26,16 Z"/>
    <text fill="#FFF" font-family="SourceSansPro-Black, Source Sans Pro" font-size="15" font-weight="700">
      <tspan x="119.18" y="33">Ongoing</tspan>
    </text>
    <text fill="#FFF" font-family="SourceSansPro-Black, Source Sans Pro" font-size="15" font-weight="700">
      <tspan x="21.725" y="33">4K ETH</tspan>
    </text>
    <use fill="#000" filter="url(#progress-mobile-b)" xlink:href="#progress-mobile-c"/>
    <use fill="#242B35" xlink:href="#progress-mobile-c"/>
    <use fill="#000" filter="url(#progress-mobile-d)" xlink:href="#progress-mobile-e"/>
    <use fill="#242B35" xlink:href="#progress-mobile-e"/>
    <g fill="#242B35" font-family="SourceSansPro-Bold, Source Sans Pro" font-size="12" font-weight="bold" transform="translate(15 70)">
      <text>
        <tspan x="203.474" y="12">Community</tspan> <tspan x="223.178" y="27">Sale</tspan>
      </text>
      <text>
        <tspan x="113.51" y="12">Private</tspan> <tspan x="121.178" y="27">Sale</tspan>
      </text>
      <text>
        <tspan x="10.052" y="12">Genesis</tspan> <tspan x="19.178" y="27">Sale</tspan>
      </text>
    </g>
  </g>
</svg>
