<svg xmlns="http://www.w3.org/2000/svg" width="16" height="13" viewBox="0 0 16 13">
  <path fill="#8493A8" fill-rule="evenodd" d="M126.583158,8.18105263 C126.561739,7.1660781 125.724552,6.35899218 124.709474,6.37473684 C124.282354,6.37388659 123.86727,6.516201 123.530526,6.77894737 C122.265815,6.05277095 120.844523,5.64256051 119.387368,5.58315789 L120.195789,3.11578947 L122.423158,3.62105263 C122.453835,4.47782838 123.168123,5.15045186 124.025195,5.12964298 C124.882267,5.10883411 125.563071,4.40233915 125.552134,3.54508416 C125.541196,2.68782917 124.842587,1.99893448 123.985263,2 C123.407447,1.99721206 122.874359,2.31060303 122.595789,2.81684211 L120.006316,2.22736842 C119.792595,2.17670653 119.575455,2.29713731 119.505263,2.50526316 L118.498947,5.57052632 C116.931598,5.57884218 115.392375,5.9875624 114.027368,6.75789474 C113.694543,6.50842658 113.289624,6.37394624 112.873684,6.37473684 C111.859413,6.35924574 111.023573,7.16684752 111.004211,8.18105263 C111.007126,8.78077799 111.310763,9.339028 111.812632,9.66736842 C111.7922,9.81101304 111.782349,9.95596453 111.783158,10.1010526 C111.783158,11.3431579 112.532632,12.5010526 113.892632,13.36 C116.914617,15.0610319 120.605383,15.0610319 123.627368,13.36 C124.991579,12.5010526 125.741053,11.3431579 125.741053,10.1010526 C125.741161,9.96871652 125.732722,9.83651157 125.715789,9.70526316 C126.25112,9.38339845 126.579874,8.80568403 126.583158,8.18105263 Z M123.985263,2.82105263 C124.36162,2.83578887 124.656361,3.15007265 124.646939,3.52660016 C124.637516,3.90312767 124.327424,4.20227552 123.950801,4.19816846 C123.574178,4.1940614 123.270683,3.8882224 123.269474,3.51157895 C123.272459,3.32497123 123.349641,3.14723606 123.483959,3.01765918 C123.618276,2.88808231 123.798669,2.81733418 123.985263,2.82105263 Z M115.421053,9.29684211 C115.438415,8.71968134 115.913115,8.26180178 116.490526,8.26526316 C117.065392,8.26284879 117.535876,8.72208607 117.547368,9.29684211 C117.536308,9.86979553 117.063502,10.3256485 116.490526,10.3157895 C115.915021,10.3266565 115.438029,9.87219972 115.421053,9.29684211 Z M121.357895,12.2905263 C120.814737,12.8126316 119.976842,13.0652632 118.802105,13.0652632 L118.785263,13.0652632 C117.606316,13.0652632 116.768421,12.8126316 116.229474,12.2905263 C116.148849,12.2154203 116.10306,12.1101877 116.10306,12 C116.10306,11.8898123 116.148849,11.7845797 116.229474,11.7094737 C116.398255,11.5493918 116.662798,11.5493918 116.831579,11.7094737 C117.202105,12.0673684 117.842105,12.2442105 118.785263,12.2442105 L118.802105,12.2442105 C119.741053,12.2442105 120.381053,12.0673684 120.755789,11.7094737 C120.92457,11.5493918 121.189114,11.5493918 121.357895,11.7094737 C121.43662,11.7856272 121.48107,11.890469 121.48107,12 C121.48107,12.109531 121.43662,12.2143728 121.357895,12.2905263 Z M121.109474,10.3157895 C120.533968,10.3266565 120.056976,9.87219972 120.04,9.29684211 C120.057363,8.71968134 120.532062,8.26180178 121.109474,8.26526316 C121.68434,8.26284879 122.154823,8.72208607 122.166316,9.29684211 C122.155255,9.86979553 121.682449,10.3256485 121.109474,10.3157895 Z" transform="translate(-111 -2)"/>
</svg>
