<svg xmlns="http://www.w3.org/2000/svg" xmlns:xlink="http://www.w3.org/1999/xlink" width="153" height="52" viewBox="0 0 153 52">
  <defs>
    <polygon id="rndr-a" points="0 .188 51.812 .188 51.812 52 0 52"/>
  </defs>
  <g fill="none" fill-rule="evenodd">
    <path fill="#242B35" d="M86.204,36 L82.073,28.413 L80.507,28.413 L80.507,36 L75.971,36 L75.971,16.884 L83.261,16.884 C84.1790046,16.884 85.0744956,16.9784991 85.9475,17.1675 C86.8205044,17.3565009 87.6034965,17.6759978 88.2965,18.126 C88.9895035,18.5760023 89.5429979,19.1699963 89.957,19.908 C90.3710021,20.6460037 90.578,21.5639945 90.578,22.662 C90.578,23.9580065 90.2270035,25.0469956 89.525,25.929 C88.8229965,26.8110044 87.8510062,27.4409981 86.609,27.819 L91.604,36 L86.204,36 Z M86.015,22.743 C86.015,22.2929977 85.9205009,21.9285014 85.7315,21.6495 C85.5424991,21.3704986 85.2995015,21.1545008 85.0025,21.0015 C84.7054985,20.8484992 84.3725018,20.7450003 84.0035,20.691 C83.6344982,20.6369997 83.2790017,20.61 82.937,20.61 L80.48,20.61 L80.48,25.065 L82.667,25.065 C83.0450019,25.065 83.431998,25.0335003 83.828,24.9705 C84.224002,24.9074997 84.5839984,24.7950008 84.908,24.633 C85.2320016,24.4709992 85.497499,24.2370015 85.7045,23.931 C85.911501,23.6249985 86.015,23.2290024 86.015,22.743 Z M106.208207,36 L98.5132069,23.499 L98.4322069,23.499 L98.5402069,36 L94.0582069,36 L94.0582069,16.884 L99.3232069,16.884 L106.991207,29.358 L107.072207,29.358 L106.964207,16.884 L111.446207,16.884 L111.446207,36 L106.208207,36 Z M133.421414,26.388 C133.421414,28.0620084 133.110917,29.5064939 132.489914,30.7215 C131.868911,31.9365061 131.049919,32.9354961 130.032914,33.7185 C129.015909,34.5015039 127.86842,35.0774982 126.590414,35.4465 C125.312407,35.8155018 124.01642,36 122.702414,36 L115.574414,36 L115.574414,16.884 L122.486414,16.884 C123.836421,16.884 125.168407,17.0414984 126.482414,17.3565 C127.79642,17.6715016 128.966409,18.1934964 129.992414,18.9225 C131.018419,19.6515036 131.846411,20.6279939 132.476414,21.852 C133.106417,23.0760061 133.421414,24.587991 133.421414,26.388 Z M128.615414,26.388 C128.615414,25.3079946 128.439916,24.4125036 128.088914,23.7015 C127.737912,22.9904964 127.269917,22.4235021 126.684914,22.0005 C126.099911,21.5774979 125.433918,21.2760009 124.686914,21.096 C123.93991,20.9159991 123.170418,20.826 122.378414,20.826 L120.083414,20.826 L120.083414,32.004 L122.270414,32.004 C123.098418,32.004 123.89491,31.9095009 124.659914,31.7205 C125.424918,31.5314991 126.099911,31.2210022 126.684914,30.789 C127.269917,30.3569978 127.737912,29.7810036 128.088914,29.061 C128.439916,28.3409964 128.615414,27.4500053 128.615414,26.388 Z M146.891621,36 L142.760621,28.413 L141.194621,28.413 L141.194621,36 L136.658621,36 L136.658621,16.884 L143.948621,16.884 C144.866625,16.884 145.762116,16.9784991 146.635121,17.1675 C147.508125,17.3565009 148.291117,17.6759978 148.984121,18.126 C149.677124,18.5760023 150.230619,19.1699963 150.644621,19.908 C151.058623,20.6460037 151.265621,21.5639945 151.265621,22.662 C151.265621,23.9580065 150.914624,25.0469956 150.212621,25.929 C149.510617,26.8110044 148.538627,27.4409981 147.296621,27.819 L152.291621,36 L146.891621,36 Z M146.702621,22.743 C146.702621,22.2929977 146.608122,21.9285014 146.419121,21.6495 C146.23012,21.3704986 145.987122,21.1545008 145.690121,21.0015 C145.393119,20.8484992 145.060123,20.7450003 144.691121,20.691 C144.322119,20.6369997 143.966622,20.61 143.624621,20.61 L141.167621,20.61 L141.167621,25.065 L143.354621,25.065 C143.732623,25.065 144.119619,25.0335003 144.515621,24.9705 C144.911623,24.9074997 145.271619,24.7950008 145.595621,24.633 C145.919622,24.4709992 146.18512,24.2370015 146.392121,23.931 C146.599122,23.6249985 146.702621,23.2290024 146.702621,22.743 Z"/>
    <path fill="#E62249" d="M31.2089743,28.2089743 C24.1285872,35.2893614 14.4897835,37.130015 9.67988426,32.3201157 C4.86998501,27.5102165 6.71063858,17.871096 13.7910257,10.7910257 C20.871096,3.71063858 30.5102165,1.86998501 35.3201157,6.67988426 C40.130015,11.4897835 38.2893614,21.1285872 31.2089743,28.2089743"/>
    <mask id="rndr-b" fill="#fff">
      <use xlink:href="#rndr-a"/>
    </mask>
    <path fill="#242B35" d="M47.1092287,2.38103952 L44.9161988,0.188009581 L44.9118395,0.192057485 C53.0599593,8.70044072 49.791121,25.3974228 37.5004383,37.6884168 C25.2094443,49.9790994 8.51277365,53.2479377 0.00439041916,45.099818 L3.11377246e-05,45.1041772 L2.19306108,47.2972072 C10.6270251,55.7311713 27.5189293,52.5133988 39.9223305,40.1099976 C52.3254204,27.7069078 55.5431928,10.8150036 47.1092287,2.38103952" mask="url(#rndr-b)"/>
    <path fill="#E62249" d="M36.0495672,7.81341396 L34.1794884,6 L34.167343,6.01207936 C39.0466762,11.2436503 36.9564231,21.2444547 29.3384599,28.6312855 C21.720808,36.0181162 11.407502,38.0450329 6.01245681,33.3135475 L6,33.3253249 L7.87007888,35.1387388 C13.1614211,40.2700511 23.7590538,38.3122887 31.5405128,30.7666144 C39.3219717,23.22094 41.3409095,12.9444242 36.0495672,7.81341396"/>
  </g>
</svg>
