<svg xmlns="http://www.w3.org/2000/svg" width="133" height="46" viewBox="0 0 133 46">
  <g fill="none" fill-rule="evenodd">
    <text fill="#8493A8" font-family="AvenirNext-Bold, Avenir Next" font-size="24" font-weight="bold" letter-spacing="-.102">
      <tspan x="64" y="32">RNDR</tspan>
    </text>
    <path fill="#D85771" d="M27.0852357,25.0852357 C20.9184469,31.2520245 12.5233598,32.8551744 8.33409274,28.6659073 C4.14482565,24.4766402 5.74797554,16.0812772 11.9147643,9.9147643 C18.0812772,3.74797554 26.4766402,2.14482565 30.6659073,6.33409274 C34.8551744,10.5233598 33.2520245,18.9184469 27.0852357,25.0852357"/>
    <path fill="#8493A8" d="M39.7335605,0.166316168 C46.9376563,7.69654371 44.0459916,22.4669509 33.1734647,33.3397533 C22.3006623,44.2122802 7.53053054,47.1039449 0.00388383234,39.8959928 L1.94001557,41.8398371 C9.40082994,49.3006515 24.3436683,46.4541605 35.3159078,35.481921 C46.2878719,24.5099569 49.1343629,9.56711856 41.6735485,2.10630419 L39.7335605,0.166316168 Z"/>
    <path fill="#D85771" d="M31.4071955,7.58673722 L29.7637928,6 L29.7531196,6.01056944 C34.0410185,10.588194 32.2041294,19.3388978 25.5095556,25.8023748 C18.8152555,32.2658517 9.75204724,34.0394038 5.0109469,29.899354 L5,29.9096592 L6.64340265,31.4963965 C11.2933701,35.9862947 20.6064412,34.2732527 27.444693,27.6707876 C34.2829448,21.0683225 36.0571629,12.0763712 31.4071955,7.58673722"/>
  </g>
</svg>
