<svg xmlns="http://www.w3.org/2000/svg" width="113" height="39" viewBox="0 0 113 39">
  <g fill="none" fill-rule="evenodd">
    <path fill="#242B35" d="M64.04,27 L60.98,21.38 L59.82,21.38 L59.82,27 L56.46,27 L56.46,12.84 L61.86,12.84 C62.5400034,12.84 63.2033301,12.9099993 63.85,13.05 C64.4966699,13.1900007 65.0766641,13.426665 65.59,13.76 C66.1033359,14.093335 66.5133318,14.5333306 66.82,15.08 C67.1266682,15.6266694 67.28,16.3066626 67.28,17.12 C67.28,18.0800048 67.0200026,18.8866634 66.5,19.54 C65.9799974,20.1933366 65.2600046,20.6599986 64.34,20.94 L68.04,27 L64.04,27 Z M63.9,17.18 C63.9,16.846665 63.8300007,16.5766677 63.69,16.37 C63.5499993,16.1633323 63.3700011,16.0033339 63.15,15.89 C62.9299989,15.7766661 62.6833347,15.7000002 62.41,15.66 C62.1366653,15.6199998 61.8733346,15.6 61.62,15.6 L59.8,15.6 L59.8,18.9 L61.42,18.9 C61.7000014,18.9 61.9866652,18.8766669 62.28,18.83 C62.5733348,18.7833331 62.8399988,18.7000006 63.08,18.58 C63.3200012,18.4599994 63.5166659,18.2866678 63.67,18.06 C63.8233341,17.8333322 63.9,17.5400018 63.9,17.18 Z M78.635,27 L72.935,17.74 L72.875,17.74 L72.955,27 L69.635,27 L69.635,12.84 L73.535,12.84 L79.215,22.08 L79.275,22.08 L79.195,12.84 L82.515,12.84 L82.515,27 L78.635,27 Z M98.57,19.88 C98.57,21.1200062 98.3400023,22.1899955 97.88,23.09 C97.4199977,23.9900045 96.8133371,24.7299971 96.06,25.31 C95.3066629,25.8900029 94.4566714,26.3166653 93.51,26.59 C92.5633286,26.8633347 91.6033382,27 90.63,27 L85.35,27 L85.35,12.84 L90.47,12.84 C91.470005,12.84 92.4566618,12.9566655 93.43,13.19 C94.4033382,13.4233345 95.2699962,13.8099973 96.03,14.35 C96.7900038,14.8900027 97.403331,15.6133288 97.87,16.52 C98.336669,17.4266712 98.57,18.54666 98.57,19.88 Z M95.01,19.88 C95.01,19.079996 94.8800013,18.4166693 94.62,17.89 C94.3599987,17.3633307 94.0133355,16.9433349 93.58,16.63 C93.1466645,16.3166651 92.6533361,16.093334 92.1,15.96 C91.5466639,15.826666 90.9766696,15.76 90.39,15.76 L88.69,15.76 L88.69,24.04 L90.31,24.04 C90.9233364,24.04 91.5133305,23.9700007 92.08,23.83 C92.6466695,23.6899993 93.1466645,23.4600016 93.58,23.14 C94.0133355,22.8199984 94.3599987,22.393336 94.62,21.86 C94.8800013,21.326664 95.01,20.6666706 95.01,19.88 Z M108.325,27 L105.265,21.38 L104.105,21.38 L104.105,27 L100.745,27 L100.745,12.84 L106.145,12.84 C106.825003,12.84 107.48833,12.9099993 108.135,13.05 C108.78167,13.1900007 109.361664,13.426665 109.875,13.76 C110.388336,14.093335 110.798332,14.5333306 111.105,15.08 C111.411668,15.6266694 111.565,16.3066626 111.565,17.12 C111.565,18.0800048 111.305003,18.8866634 110.785,19.54 C110.264997,20.1933366 109.545005,20.6599986 108.625,20.94 L112.325,27 L108.325,27 Z M108.185,17.18 C108.185,16.846665 108.115001,16.5766677 107.975,16.37 C107.834999,16.1633323 107.655001,16.0033339 107.435,15.89 C107.214999,15.7766661 106.968335,15.7000002 106.695,15.66 C106.421665,15.6199998 106.158335,15.6 105.905,15.6 L104.085,15.6 L104.085,18.9 L105.705,18.9 C105.985001,18.9 106.271665,18.8766669 106.565,18.83 C106.858335,18.7833331 107.124999,18.7000006 107.365,18.58 C107.605001,18.4599994 107.801666,18.2866678 107.955,18.06 C108.108334,17.8333322 108.185,17.5400018 108.185,17.18 Z"/>
    <path fill="#E62249" d="M20.3065608,23.1871864 C15.5038646,26.5260514 9.98385978,27.0072573 6.98830123,24.0116988 C3.41966629,20.4430638 4.7853125,13.2914583 10.0385029,8.03850292 C15.2914583,2.7853125 22.4430638,1.41966629 26.0116988,4.98830123 C26.6065724,5.58317483 27.064336,6.27760271 27.3898381,7.04619731 C30.587212,11.0702994 28.9117857,18.2345527 23.3488733,23.5749608 C17.4538287,29.2342166 9.42531904,30.7025383 5.41672642,26.8540541 L4,25.4939936 L4.00943698,25.4851606 C7.78023566,28.7591024 14.7225145,27.7185523 20.3065608,23.1871864 Z"/>
    <path fill="#242B35" d="M35.3319216,1.78577964 L33.6871491,0.141007186 L33.6838796,0.144043114 C39.7949695,6.52533054 37.3433407,19.0480671 28.1253287,28.2663126 C18.9070832,37.4843246 6.38458024,39.9359533 0.00329281437,33.8248635 L2.33532934e-05,33.8281329 L1.64479581,35.4729054 C7.97026886,41.7983784 20.639197,39.3850491 29.9417479,30.0824982 C39.2440653,20.7801808 41.6573946,8.11125269 35.3319216,1.78577964"/>
  </g>
</svg>
