<svg xmlns="http://www.w3.org/2000/svg" width="133" height="46" viewBox="0 0 133 46">
  <g fill="none" fill-rule="evenodd">
    <path fill="#8493A8" d="M74.848,32 L71.176,25.256 L69.784,25.256 L69.784,32 L65.752,32 L65.752,15.008 L72.232,15.008 C73.0480041,15.008 73.8439961,15.0919992 74.62,15.26 C75.3960039,15.4280008 76.0919969,15.711998 76.708,16.112 C77.3240031,16.512002 77.8159982,17.0399967 78.184,17.696 C78.5520018,18.3520033 78.736,19.1679951 78.736,20.144 C78.736,21.2960058 78.4240031,22.2639961 77.8,23.048 C77.1759969,23.8320039 76.3120055,24.3919983 75.208,24.728 L79.648,32 L74.848,32 Z M74.68,20.216 C74.68,19.815998 74.5960008,19.4920012 74.428,19.244 C74.2599992,18.9959988 74.0440013,18.8040007 73.78,18.668 C73.5159987,18.5319993 73.2200016,18.4400002 72.892,18.392 C72.5639984,18.3439998 72.2480015,18.32 71.944,18.32 L69.76,18.32 L69.76,22.28 L71.704,22.28 C72.0400017,22.28 72.3839982,22.2520003 72.736,22.196 C73.0880018,22.1399997 73.4079986,22.0400007 73.696,21.896 C73.9840014,21.7519993 74.2199991,21.5440014 74.404,21.272 C74.5880009,20.9999986 74.68,20.6480022 74.68,20.216 Z M92.362,32 L85.522,20.888 L85.45,20.888 L85.546,32 L81.562,32 L81.562,15.008 L86.242,15.008 L93.058,26.096 L93.13,26.096 L93.034,15.008 L97.018,15.008 L97.018,32 L92.362,32 Z M116.284,23.456 C116.284,24.9440074 116.008003,26.2279946 115.456,27.308 C114.903997,28.3880054 114.176005,29.2759965 113.272,29.972 C112.367995,30.6680035 111.348006,31.1799984 110.212,31.508 C109.075994,31.8360016 107.924006,32 106.756,32 L100.42,32 L100.42,15.008 L106.564,15.008 C107.764006,15.008 108.947994,15.1479986 110.116,15.428 C111.284006,15.7080014 112.323995,16.1719968 113.236,16.82 C114.148005,17.4680032 114.883997,18.3359946 115.444,19.424 C116.004003,20.5120054 116.284,21.855992 116.284,23.456 Z M112.012,23.456 C112.012,22.4959952 111.856002,21.7000032 111.544,21.068 C111.231998,20.4359968 110.816003,19.9320019 110.296,19.556 C109.775997,19.1799981 109.184003,18.9120008 108.52,18.752 C107.855997,18.5919992 107.172004,18.512 106.468,18.512 L104.428,18.512 L104.428,28.448 L106.372,28.448 C107.108004,28.448 107.815997,28.3640008 108.496,28.196 C109.176003,28.0279992 109.775997,27.7520019 110.296,27.368 C110.816003,26.9839981 111.231998,26.4720032 111.544,25.832 C111.856002,25.1919968 112.012,24.4000047 112.012,23.456 Z M127.99,32 L124.318,25.256 L122.926,25.256 L122.926,32 L118.894,32 L118.894,15.008 L125.374,15.008 C126.190004,15.008 126.985996,15.0919992 127.762,15.26 C128.538004,15.4280008 129.233997,15.711998 129.85,16.112 C130.466003,16.512002 130.957998,17.0399967 131.326,17.696 C131.694002,18.3520033 131.878,19.1679951 131.878,20.144 C131.878,21.2960058 131.566003,22.2639961 130.942,23.048 C130.317997,23.8320039 129.454006,24.3919983 128.35,24.728 L132.79,32 L127.99,32 Z M127.822,20.216 C127.822,19.815998 127.738001,19.4920012 127.57,19.244 C127.401999,18.9959988 127.186001,18.8040007 126.922,18.668 C126.657999,18.5319993 126.362002,18.4400002 126.034,18.392 C125.705998,18.3439998 125.390002,18.32 125.086,18.32 L122.902,18.32 L122.902,22.28 L124.846,22.28 C125.182002,22.28 125.525998,22.2520003 125.878,22.196 C126.230002,22.1399997 126.549999,22.0400007 126.838,21.896 C127.126001,21.7519993 127.361999,21.5440014 127.546,21.272 C127.730001,20.9999986 127.822,20.6480022 127.822,20.216 Z"/>
    <path fill="#D85771" d="M27.0852357,25.0852357 C20.9184469,31.2520245 12.5233598,32.8551744 8.33409274,28.6659073 C4.14482565,24.4766402 5.74797554,16.0812772 11.9147643,9.9147643 C18.0812772,3.74797554 26.4766402,2.14482565 30.6659073,6.33409274 C34.8551744,10.5233598 33.2520245,18.9184469 27.0852357,25.0852357"/>
    <path fill="#8493A8" d="M39.7335605,0.166316168 C46.9376563,7.69654371 44.0459916,22.4669509 33.1734647,33.3397533 C22.3006623,44.2122802 7.53053054,47.1039449 0.00388383234,39.8959928 L1.94001557,41.8398371 C9.40082994,49.3006515 24.3436683,46.4541605 35.3159078,35.481921 C46.2878719,24.5099569 49.1343629,9.56711856 41.6735485,2.10630419 L39.7335605,0.166316168 Z"/>
    <path fill="#D85771" d="M31.4071955,7.58673722 L29.7637928,6 L29.7531196,6.01056944 C34.0410185,10.588194 32.2041294,19.3388978 25.5095556,25.8023748 C18.8152555,32.2658517 9.75204724,34.0394038 5.0109469,29.899354 L5,29.9096592 L6.64340265,31.4963965 C11.2933701,35.9862947 20.6064412,34.2732527 27.444693,27.6707876 C34.2829448,21.0683225 36.0571629,12.0763712 31.4071955,7.58673722"/>
  </g>
</svg>
