<svg xmlns="http://www.w3.org/2000/svg" width="21" height="18" viewBox="0 0 21 18">
  <path fill="#8493A8" fill-rule="evenodd" d="M20.9906255,11.9850067 C20.9851978,10.9063954 20.6588105,9.85381377 20.0530442,8.96135708 C19.4427051,8.06085824 18.6505498,7.2981555 17.7275828,6.72235703 C15.6071415,5.44176148 13.1684871,4.78524067 10.691725,4.82820297 C9.82376435,4.82779569 8.95734795,4.9013625 8.10188165,5.04810476 C7.56548289,4.5460401 6.96725748,4.11441762 6.3216767,3.76367839 C4.33732746,2.75969462 1.9968896,2.74489226 0,3.72369625 C0,3.72369625 2.6643101,5.92771192 2.23100362,7.86184812 C1.08956435,8.93370627 0.42713843,10.4195719 0.392824562,11.9850067 C0.392824562,11.9900045 0.392824562,11.9950022 0.392824562,12 C0.392824562,12.0049978 0.392824562,12.0099955 0.392824562,12.0149933 C0.426127279,13.5806547 1.08871994,15.0668944 2.23100362,16.1381519 C2.6643101,18.0722881 5.68180436e-14,20.2763038 5.68180436e-14,20.2763038 C1.9968896,21.2551077 4.33732746,21.2403054 6.3216767,20.2363216 C6.96717927,19.885458 7.56538952,19.4538465 8.10188165,18.9518952 C8.95735072,19.0986158 9.82376527,19.1721825 10.691725,19.171797 C13.1687857,19.2171827 15.6080999,18.5604843 17.7275828,17.277643 C18.6516542,16.7032625 19.4440803,15.9402991 20.0530442,15.0386429 C20.6588105,14.1461862 20.9851978,13.0936046 20.9906255,12.0149933 C20.9906255,12.0099955 20.9906255,12.0049978 20.9906255,12 L20.9906255,11.9850067 Z M10.691725,13.379384 C11.1702748,13.3826205 11.6035522,13.096974 11.7891655,12.6558753 C11.9747787,12.2147765 11.8760946,11.705282 11.5392102,11.3653859 C11.2023259,11.0254898 10.6937298,10.9222751 10.2509966,11.1039552 C9.80826336,11.2856353 9.51877202,11.7163533 9.51774932,12.194913 C9.51615512,12.5077235 9.63899417,12.8083336 9.85920096,13.030509 C10.0794077,13.2526845 10.3789127,13.3781941 10.691725,13.379384 Z M14.7734021,13.379384 C15.2519519,13.3826205 15.6852293,13.096974 15.8708426,12.6558753 C16.0564558,12.2147765 15.9577717,11.705282 15.6208873,11.3653859 C15.284003,11.0254898 14.7754069,10.9222751 14.3326737,11.1039552 C13.8899405,11.2856353 13.6004491,11.7163533 13.5994264,12.194913 C13.5979652,12.5076834 13.7208472,12.8082166 13.9410253,13.0303631 C14.1612034,13.2525096 14.4606311,13.3780615 14.7734021,13.379384 Z M6.61004791,13.379384 C7.08864146,13.3828232 7.52207141,13.0973064 7.70784237,12.656225 C7.89361332,12.2151437 7.79505377,11.705568 7.45821003,11.3655681 C7.12136629,11.0255683 6.61273191,10.9222608 6.16993728,11.1039103 C5.72714265,11.2855597 5.4375962,11.7163081 5.43657199,12.194913 C5.43511055,12.5075972 5.55792405,12.8080549 5.7779942,13.030187 C5.99806436,13.2523192 6.29736365,13.3779293 6.61004791,13.379384 Z" transform="translate(0 -3)"/>
</svg>
