<svg xmlns="http://www.w3.org/2000/svg" width="17" height="14" viewBox="0 0 17 14">
  <path fill="#FFF" fill-rule="evenodd" d="M16.326042,6.98833854 C16.3218205,6.14941866 16.0679637,5.33074404 15.5968121,4.63661106 C15.122104,3.93622308 14.5059831,3.34300983 13.7881199,2.89516658 C12.1388878,1.89914782 10.2421566,1.38852052 8.31578612,1.42193564 C7.6407056,1.42161887 6.96682619,1.4788375 6.30146351,1.59297037 C5.88426447,1.20247564 5.41897804,0.866769259 4.91685966,0.593972081 C3.37347692,-0.186904187 1.55313636,-0.198417132 0,0.562874858 C0,0.562874858 2.07224119,2.27710927 1.73522504,3.78143743 C0.847438942,4.61510487 0.332218779,5.77077816 0.305530215,6.98833854 C0.305530215,6.99222569 0.305530215,6.99611285 0.305530215,7 C0.305530215,7.00388715 0.305530215,7.00777431 0.305530215,7.01166146 C0.331432328,8.2293981 0.846782173,9.38536228 1.73522504,10.2185626 C2.07224119,11.7228907 4.41918117e-14,13.4371251 4.41918117e-14,13.4371251 C1.55313636,14.1984171 3.37347692,14.1869042 4.91685966,13.4060279 C5.41891721,13.133134 5.88419185,12.7974361 6.30146351,12.4070296 C6.96682834,12.5211457 7.64070632,12.5783642 8.31578612,12.5780644 C10.2423888,12.6133644 12.1396333,12.1025989 13.7881199,11.1048334 C14.5068421,10.6580931 15.1231736,10.0646771 15.5968121,9.36338894 C16.0679637,8.66925596 16.3218205,7.85058134 16.326042,7.01166146 C16.326042,7.00777431 16.326042,7.00388715 16.326042,7 L16.326042,6.98833854 Z M8.31578612,8.07285419 C8.68799151,8.07537149 9.02498508,7.853202 9.16935092,7.5101252 C9.31371676,7.1670484 9.23696243,6.77077486 8.9749413,6.50641126 C8.71292016,6.24204766 8.31734542,6.16176953 7.97299735,6.30307626 C7.62864928,6.444383 7.40348935,6.77938591 7.40269391,7.15159896 C7.40145398,7.39489602 7.49699546,7.6287039 7.66826741,7.80150702 C7.83953936,7.97431014 8.07248766,8.07192872 8.31578612,8.07285419 Z M11.4904239,8.07285419 C11.8626293,8.07537149 12.1996228,7.853202 12.3439887,7.5101252 C12.4883545,7.1670484 12.4116002,6.77077486 12.149579,6.50641126 C11.8875579,6.24204766 11.4919832,6.16176953 11.1476351,6.30307626 C10.803287,6.444383 10.5781271,6.77938591 10.5773317,7.15159896 C10.5761951,7.39486486 10.67177,7.62861288 10.8430197,7.80139351 C11.0142693,7.97417413 11.2471575,8.07182561 11.4904239,8.07285419 Z M5.14114838,8.07285419 C5.5133878,8.07552912 5.85049999,7.85346051 5.99498851,7.51039724 C6.13947703,7.16733396 6.0628196,6.77099732 5.80083002,6.50655299 C5.53884045,6.24210866 5.14323593,6.16175841 4.79884011,6.30304131 C4.45444428,6.44432422 4.22924149,6.77935078 4.22844488,7.15159896 C4.22730821,7.39479781 4.32282981,7.62848712 4.49399549,7.80125656 C4.66516117,7.97402601 4.89794951,8.0717228 5.14114838,8.07285419 Z"/>
</svg>
