<svg xmlns="http://www.w3.org/2000/svg" width="70" height="18" viewBox="0 0 70 18">
  <g fill="none" fill-rule="evenodd">
    <path fill="#242B35" d="M5.60117849,3.92324267e-15 L67,4.4408921e-16 C68.6568542,1.39730022e-16 70,1.34314575 70,3 L70,15 C70,16.6568542 68.6568542,18 67,18 L5.60117849,18 C3.94432424,18 2.60117849,16.6568542 2.60117849,15 L2.60117849,12 L0.296744335,9.70920196 C-0.0949370927,9.31983824 -0.0968159686,8.68667605 0.292547748,8.29499463 C0.293942456,8.29359162 0.295341325,8.29219275 0.296744335,8.29079804 L2.60117849,6 L2.60117849,3 C2.60117849,1.34314575 3.94432424,5.1893405e-15 5.60117849,4.88498131e-15 Z"/>
    <text fill="#FFF" font-family="SourceSansPro-Bold, Source Sans Pro" font-size="12" font-weight="bold">
      <tspan x="8" y="13">To be done</tspan>
    </text>
  </g>
</svg>
