<svg xmlns="http://www.w3.org/2000/svg" width="16" height="15" viewBox="0 0 16 15">
  <g fill="none">
    <path fill="#8493A8" d="M15.9542857,0.914285714 L13.44,13.4857143 C13.44,13.4857143 13.0742857,14.3542857 12.1142857,13.9428571 L6.4,9.55428571 L4.29714286,8.54857143 L0.822857143,7.31428571 C0.822857143,7.31428571 0.274285714,7.13142857 0.228571429,6.72 C0.182857143,6.30857143 0.822857143,6.08 0.822857143,6.08 L14.8114286,0.594285714 C14.8114286,0.594285714 15.9542857,0.0914285714 15.9542857,0.914285714 Z"/>
    <path fill="#AFB8C5" d="M5.98857143,13.3485714 C5.98857143,13.3485714 5.80571429,13.3485714 5.62285714,12.6628571 C5.39428571,12.0228571 4.34285714,8.50285714 4.34285714,8.50285714 L12.8,3.15428571 C12.8,3.15428571 13.3028571,2.88 13.2571429,3.15428571 C13.2571429,3.15428571 13.3485714,3.2 13.0742857,3.42857143 C12.8,3.65714286 6.44571429,9.50857143 6.44571429,9.50857143"/>
    <path fill="#8493A8" d="M8.64,11.2457143 L6.35428571,13.3028571 C6.35428571,13.3028571 6.17142857,13.44 5.98857143,13.3485714 L6.44571429,9.50857143"/>
  </g>
</svg>
