<svg xmlns="http://www.w3.org/2000/svg" width="102" height="869" viewBox="0 0 102 869">
  <defs>
    <linearGradient id="timeline-a" x1="50%" x2="50%" y1="62.075%" y2="100%">
      <stop offset="0%" stop-color="#C9D5DE"/>
      <stop offset="100%" stop-color="#C9D5DE" stop-opacity=".2"/>
    </linearGradient>
  </defs>
  <g fill="none" fill-rule="evenodd" transform="translate(2)">
    <path stroke="#C9D5DE" stroke-linecap="round" stroke-width="4" d="M15.8475123,517.935211 C15.7136193,517.836453 15.5771769,517.740976 15.4383026,517.648899 C14.8944549,517.288313 14.3133117,516.979861 13.7019323,516.730631 C12.5462265,516.259505 11.2824771,516 9.95836944,516 C4.45851387,516 0,520.477153 0,526 C0,531.522847 4.45851387,536 9.95836944,536 C11.2824771,536 12.5462265,535.740495 13.7019323,535.269369 C14.3133117,535.020139 14.8944549,534.711687 15.4383026,534.351101 C15.5771769,534.259024 15.7136193,534.163547 15.8475123,534.064789"/>
    <path stroke="#C9D5DE" stroke-linecap="round" stroke-width="4" d="M97.9955937,266.935211 C97.8617007,266.836453 97.7252582,266.740976 97.5863839,266.648899 C97.0425362,266.288313 96.461393,265.979861 95.8500137,265.730631 C94.6943078,265.259505 93.4305584,265 92.1064508,265 C86.6065952,265 82.1480813,269.477153 82.1480813,275 C82.1480813,280.522847 86.6065952,285 92.1064508,285 C93.4305584,285 94.6943078,284.740495 95.8500137,284.269369 C96.461393,284.020139 97.0425362,283.711687 97.5863839,283.351101 C97.7252582,283.259024 97.8617007,283.163547 97.9955937,283.064789" transform="matrix(-1 0 0 1 180.144 0)"/>
    <path stroke="#E62249" stroke-linecap="round" stroke-width="4" d="M15.8475123,110.935211 C15.7136193,110.836453 15.5771769,110.740976 15.4383026,110.648899 C14.8944549,110.288313 14.3133117,109.979861 13.7019323,109.730631 C12.5462265,109.259505 11.2824771,109 9.95836944,109 C4.45851387,109 0,113.477153 0,119 C0,124.522847 4.45851387,129 9.95836944,129 C11.2824771,129 12.5462265,128.740495 13.7019323,128.269369 C14.3133117,128.020139 14.8944549,127.711687 15.4383026,127.351101 C15.5771769,127.259024 15.7136193,127.163547 15.8475123,127.064789"/>
    <path fill="#C9D5DE" d="M10 524L47 524 47 528 10 528C8.8954305 528 8 527.104569 8 526L8 526C8 524.895431 8.8954305 524 10 524zM51 273L88 273C89.1045695 273 90 273.895431 90 275L90 275C90 276.104569 89.1045695 277 88 277L51 277 51 273zM10 117L47 117 47 121 10 121C8.8954305 121 8 120.104569 8 119L8 119C8 117.895431 8.8954305 117 10 117z"/>
    <path fill="url(#timeline-a)" d="M49,0 L49,0 C50.1045695,-2.02906125e-16 51,0.8954305 51,2 L51,869 L47,869 L47,2 C47,0.8954305 47.8954305,2.02906125e-16 49,0 Z"/>
  </g>
</svg>
