<svg xmlns="http://www.w3.org/2000/svg" width="16" height="14" viewBox="0 0 16 14">
  <path fill="#8493A8" fill-rule="evenodd" d="M16,2.65803121 C15.4028527,2.94236896 14.7668748,3.1293778 14.1145876,3.21243535 C14.8054674,2.76156797 15.3167089,2.0682177 15.5549026,1.2590675 C14.9140831,1.6697037 14.2079678,1.95917212 13.4694464,2.11398977 C12.8618184,1.40519484 11.990439,0.999723663 11.0754227,1.00000014 C9.2276372,1.03741133 7.75878367,2.61928027 7.79420498,4.53367886 C7.79372027,4.80381937 7.82223506,5.07317786 7.87922358,5.33678766 C5.21325014,5.18115473 2.7441198,3.83298206 1.11324352,1.64248718 C0.820608499,2.18752651 0.667710169,2.80118379 0.669146376,3.42487058 C0.662223262,4.59280897 1.20773107,5.69024407 2.12946582,6.36269439 C1.60610146,6.34600373 1.09497069,6.19465191 0.642140468,5.92227988 L0.642140468,5.96891201 C0.621711801,7.62302076 1.71901709,9.06729746 3.27571656,9.43523322 C2.99462019,9.51887461 2.70348513,9.56074321 2.41102741,9.55958555 C2.2036746,9.55999399 1.99679051,9.53916735 1.7933923,9.49740938 C2.19685509,10.9147724 3.4334125,11.9033087 4.85906292,11.9481866 C3.71004584,12.9257599 2.26946442,13.4604319 0.782671209,13.4611399 C0.521128135,13.4613549 0.259795051,13.4457845 0,13.4145078 C1.488762,14.446914 3.23961989,14.9986763 5.03110055,15 C11.0689213,15 14.3696434,9.61658037 14.3696434,4.94300528 C14.3696434,4.79274622 14.3646423,4.6373058 14.3596412,4.48704674 C15.0057298,3.98176163 15.5609789,3.36265367 16,2.65803121 Z" transform="translate(0 -1)"/>
</svg>
