<svg xmlns="http://www.w3.org/2000/svg" width="108" height="31" viewBox="0 0 108 31">
  <g fill="#242B35" fill-rule="evenodd">
    <path d="M108 10L107.845489 10.699048 106.416798 11.0871383C106.099192 11.1737102 105.79634 11.4744195 105.643975 11.6696783L99.1550475 19.980582 96.7209621 28.1361418C96.5938124 28.5619893 96.7614676 28.8060627 97.0299842 28.873756L98.7296057 29.3006823 98.4981074 30 90 30 90.2317666 29.3006823 91.8155048 28.9128617C92.2441656 28.8074112 92.4778099 28.5611802 92.6264195 28.0584698L95.0602367 19.8249683 92.9357098 11.7864559C92.8340437 11.401602 92.7313046 11.0825535 92.3179339 10.9709L91.3136121 10.699048 91.4675867 10 98.7296057 10 98.5750946 10.699048 97.3392745 11.048572C96.90659 11.1707435 96.8054603 11.3943202 96.9143692 11.8252919L98.6526184 18.6596187 103.82847 11.7473503C103.925844 11.6173575 103.983518 11.475768 103.983518 11.3589903 103.983518 11.204725 103.854758 11.0936109 103.673959 11.048572L102.28336 10.699048 102.476767 10 108 10zM91 13.9237811L90.0654054 13.9237811 89.2429621 11.386395C89.0918694 10.9194802 88.8688647 10.7805895 88.4205189 10.7805895L86.3646704 10.7805895 81.5419026 27.1817943C81.4198861 27.5966251 81.5390469 27.8331075 81.9157405 27.93938L83.2612971 28.3179098 83.037254 29 75 29 75.2240431 28.3179098 76.6443673 27.9772593C77.2746994 27.8262682 77.414629 27.6297694 77.5794811 27.0678934L82.3643459 10.7805895 79.9717837 10.7805895C79.6005419 10.7805895 79.3084811 11.022596 79.0745729 11.3482527L77.3923026 13.6967684 76.457708 13.6967684 77.9530593 9 78.5509403 9C78.6999562 9.33880917 78.9276338 9.49243072 79.2612322 9.49243072L89.3177297 9.49243072C89.8784865 9.49243072 90.0654054 9.34091357 90.2897081 9L90.925492 9 91 13.9237811zM76 13.8040746L75.0440834 13.8040746 74.1266476 11.3245435C73.9878513 10.9472996 73.7054817 10.8211032 73.3626043 10.8211032L69.4648955 10.8211032 67.2484003 18.415222 70.9555628 18.415222C71.3371863 18.415222 71.5672751 18.2244474 71.8342524 17.8340188L72.8655383 16.3223525 73.8214549 16.3223525 72.0632796 22.3668653 71.1078937 22.3668653 71.1463745 20.2360561C71.1530092 19.851009 70.9173473 19.7323467 70.5346622 19.7323467L66.8659806 19.7323467 64.4204582 28.1019412 69.808569 28.1019412C70.5306814 28.1019412 70.8064164 27.9614838 71.18459 27.481453L73.3243889 24.7694407 74.356471 24.7694407 72.1779259 30 71.4905788 30C71.2992363 29.6128003 71.0277475 29.4578128 70.3435851 29.4578128L58 29.4578128 58.229558 28.7600999 59.7196945 28.3731693C60.1039719 28.2728042 60.3380415 28.0222948 60.4842686 27.520738L65.2229823 11.2860657C65.3140094 10.9731309 65.2115708 10.6965212 64.9936897 10.6270998L63.6564149 10.2008841 63.8472267 9.5037094 74.5093327 9.5037094C74.8699909 9.5037094 75.1587297 9.34845282 75.3500722 9L75.9615192 9 76 13.8040746zM62 10L61.8150844 10.699048 60.2636916 11.1648103C59.9646465 11.2546185 59.818971 11.4407077 59.7097143 11.8252919L55.1304253 27.9805281C54.9942393 28.4630114 54.8908815 28.7712721 55.4630682 28.9516977L56.5705098 29.3006823 56.3491753 30 49 30 49.2213344 29.3006823 50.2926136 28.9516977C50.889678 28.756439 51.0738242 28.5263896 51.2159091 28.0190944L55.7585227 11.7864559C55.8531605 11.4485288 55.7315933 11.2071523 55.5 11.126244L54.28125 10.699048 54.4659091 10 62 10zM51 14.8973128C51 17.9321951 48.6636761 20.5628935 44.8604797 20.4071479 44.202375 20.3807412 43.2751171 20.2514024 42.6763883 20.0576636 42.6763883 23.7669941 43.7815124 27.5466526 45.9153828 27.5466526 47.2336847 27.5466526 47.6228976 26.4095485 47.7984097 25.4516327 47.8274437 25.2956177 47.9509037 25.1810989 48.1376632 25.3737599 48.6432738 25.8946182 49.0790458 26.6194547 49.0790458 27.7018592 49.0790458 29.9793009 47.6830583 31 45.5763909 31 40.2375298 31 39.9963642 23.091468 40.8686929 18.2342552 40.9162983 17.9669549 41.0198792 17.9246503 41.2074233 18.0399775 41.8872381 18.4608676 42.6716801 18.6998751 43.7686956 18.6998751 45.4950433 18.6998751 47.1204258 17.2879259 47.1204258 14.7423756 47.1204258 12.1973642 45.0684261 10.6294001 42.0358086 10.6294001L37.026523 28.0125419C36.9773482 28.1831076 36.9511914 28.3237636 36.9511914 28.4390907 36.9511914 28.6694755 37.0409092 28.7982755 37.2901834 28.8661784L38.7217441 29.253656 38.4952264 29.9523553 31 29.9523553 31.2259946 29.253656 32.3559677 28.9047106C32.7028066 28.7974671 32.8699485 28.5859442 33.0339515 28.0125419L38.005833 10.6294001C35.8507755 11.0990618 34.8042426 11.917669 34.8042426 13.1905788 34.8042426 13.9232296 34.9648453 14.269211 35.1809003 14.5868995 35.2632942 14.7086936 35.2959902 14.8450383 35.2938976 14.9749161 35.2889278 15.2616172 35.0514242 15.5181393 34.3522534 15.5181393 33.2293427 15.5181393 32.2053046 14.8585111 32.2053046 13.2293805 32.2053046 12.2652671 32.7820617 9 41.0190945 9 47.9927546 9 51 11.3108542 51 14.8973128M26.9005525 13.0430735L18.9723757 22.564436 26.0107812 22.564436 26.9005525 13.0430735zM31 28.3223109L30.7676872 29 23.4972376 29 23.7290132 28.3223109 25.0052563 27.9838583C25.3678254 27.8876803 25.5469613 27.6407014 25.5856354 27.2311608L25.8950276 23.9566651 17.7345381 23.9566651 15.0665669 27.1182562C14.893608 27.3226344 14.7955801 27.4802305 14.7955801 27.6075096 14.7955801 27.7726848 14.8876995 27.8803624 15.1049724 27.9462234L16.3422729 28.3223109 16.1104972 29 10 29 10.2707182 28.3223109 11.5469613 28.0214932C11.994667 27.9156451 12.4421041 27.5858172 12.7845304 27.1937873L29.2983425 8.30107902 31 8 29.4140961 27.2687957C29.3802563 27.6799044 29.4393416 27.9428259 29.9168585 28.0588667L31 28.3223109z"/>
    <path d="M107.609608,4.639925 C98.6668364,6.69314052 87.673657,7.75702845 78.3400157,7.75702845 C55.0319174,7.75702845 38.6777455,4.56295948 31.7617651,2.9084681 L2.60680688,30.6922181 L0.237706143,31.0000802 L8.79703784,4.75537328 C7.43337199,5.48066638 2.83713612,6.67951121 0.734453071,6.83344224 C0.0646938575,6.88234741 0.051160688,6.5108819 0.352340049,6.33343362 C2.37727371,5.14020086 3.34104767,4.19603707 4.24989287,1.86916638 C8.45472826,2.89884741 11.6246742,2.09979569 15.4455391,0.676200862 L7.68864472,22.7650371 L28.3227479,0.214407759 C41.4666398,3.03861466 55.4649789,4.21661466 66.2280943,4.21661466 C76.2659912,4.21661466 85.089087,2.62412328 89.6126152,0.753166379 C95.9899224,4.57872672 103.290935,4.25189052 107.457293,3.9857181 C108.063102,3.9469681 108.139259,4.51859741 107.609608,4.639925"/>
  </g>
</svg>
