<svg xmlns="http://www.w3.org/2000/svg" width="34" height="18" viewBox="0 0 34 18">
  <g fill="none" fill-rule="evenodd" transform="translate(1 1)">
    <path stroke="#242B35" stroke-linecap="round" stroke-linejoin="round" stroke-width="2" d="M13.9308024,11.0864971 L10.6004879,15.2493901 C10.2209436,15.7238206 9.64631775,16 9.03875031,16 L3,16 C1.34314575,16 2.02906125e-16,14.6568542 0,13 L0,3 C0,1.34314575 1.34314575,0 3,0 L29,0 C30.6568542,-4.4408921e-16 32,1.34314575 32,3 L32,13 C32,14.6568542 30.6568542,16 29,16 L22.9612497,16 C22.3536823,16 21.7790564,15.7238206 21.3995121,15.2493901 L18.0688918,11.0861148 C18.0229988,11.0287485 17.9739798,10.9739544 17.9220578,10.9219817 L17.5,10.4995117 C17.179889,10.1790882 16.7454742,9.99914772 16.292548,9.99936887 L15.7071067,9.99965473 C15.2543301,9.99987582 14.8201614,10.1798386 14.5,10.5 L14.0783264,10.9216736 C14.0261488,10.9738512 13.9768988,11.0288765 13.9308024,11.0864971 Z"/>
    <circle cx="25" cy="8" r="3" fill="#E62249"/>
    <circle cx="7" cy="8" r="3" fill="#E62249"/>
  </g>
</svg>
