<svg xmlns="http://www.w3.org/2000/svg" width="46" height="46" viewBox="0 0 46 46">
  <g fill="none" fill-rule="evenodd" transform="translate(-1 -1)">
    <path stroke="#242B35" stroke-linecap="round" stroke-linejoin="round" stroke-width="2" d="M2.74509337,32.8017051 C3.03446415,33.4995521 3.35720926,34.1800624 3.71133767,34.8412449 C4.06759064,35.5063941 4.45560461,36.1519829 4.87335251,36.7759843 C5.71278792,38.0298717 6.67228334,39.1965932 7.73539177,40.2597016 C8.7985002,41.32281 9.96522164,42.2823054 11.2191091,43.1217409 C11.8431105,43.5394888 12.4886993,43.9275027 13.1538485,44.2837557 C13.815031,44.6378841 14.4955413,44.9606292 15.1933883,45.25 M32.7967984,45.25 C33.4946455,44.9606292 34.1751557,44.6378841 34.8363382,44.2837557 C35.5014874,43.9275027 36.1470763,43.5394888 36.7710776,43.1217409 C38.0249651,42.2823054 39.1916865,41.32281 40.254795,40.2597016 C41.3179034,39.1965932 42.2773988,38.0298717 43.1168342,36.7759843 C43.5345821,36.1519829 43.9225961,35.5063941 44.2788491,34.8412449 C44.6329775,34.1800624 44.9557226,33.4995521 45.2450934,32.8017051 M45.2450934,15.1982949 C44.9557226,14.5004479 44.6329775,13.8199376 44.2788491,13.1587551 C43.9225961,12.4936059 43.5345821,11.8480171 43.1168342,11.2240157 C42.2773988,9.97012828 41.3179034,8.80340684 40.254795,7.74029841 C39.1916865,6.67718997 38.0249651,5.71769456 36.7710776,4.87825915 C36.1470763,4.46051125 35.5014874,4.07249728 34.8363382,3.71624431 C34.1751557,3.36211589 33.4946455,3.03937079 32.7967984,2.75 M15.1933883,2.75 C14.4955413,3.03937079 13.815031,3.36211589 13.1538485,3.71624431 C12.4886993,4.07249728 11.8431105,4.46051125 11.2191091,4.87825915 C9.96522164,5.71769456 8.7985002,6.67718997 7.73539177,7.74029841 C6.67228334,8.80340684 5.71278792,9.97012828 4.87335251,11.2240157 C4.45560461,11.8480171 4.06759064,12.4936059 3.71133767,13.1587551 C3.35720926,13.8199376 3.03446415,14.5004479 2.74509337,15.1982949"/>
    <g transform="translate(7 7)">
      <circle cx="17" cy="17" r="17" opacity=".5"/>
      <path stroke="#242B35" stroke-linecap="round" stroke-width="2" d="M12,12 C12.6666667,8.34065755 14.3333333,5.67439779 17,4.0012207"/>
    </g>
    <g transform="rotate(60 14.438 26.562)">
      <circle cx="17" cy="17" r="17" opacity=".5"/>
      <path stroke="#242B35" stroke-linecap="round" stroke-width="2" d="M12,12 C12.6666667,8.34065755 14.3333333,5.67439779 17,4.0012207"/>
    </g>
    <g transform="rotate(120 18.48 22.52)">
      <circle cx="17" cy="17" r="17" opacity=".5"/>
      <path stroke="#242B35" stroke-linecap="round" stroke-width="2" d="M12,12 C12.6666667,8.34065755 14.3333333,5.67439779 17,4.0012207"/>
    </g>
    <g transform="rotate(180 20.5 20.5)">
      <circle cx="17" cy="17" r="17" opacity=".5"/>
      <path stroke="#242B35" stroke-linecap="round" stroke-width="2" d="M12,12 C12.6666667,8.34065755 14.3333333,5.67439779 17,4.0012207"/>
    </g>
    <g transform="rotate(-120 22.52 18.48)">
      <circle cx="17" cy="17" r="17" opacity=".5"/>
      <path stroke="#242B35" stroke-linecap="round" stroke-width="2" d="M12,12 C12.6666667,8.34065755 14.3333333,5.67439779 17,4.0012207"/>
    </g>
    <g transform="rotate(-60 26.562 14.438)">
      <circle cx="17" cy="17" r="17" opacity=".5"/>
      <path stroke="#242B35" stroke-linecap="round" stroke-width="2" d="M12,12 C12.6666667,8.34065755 14.3333333,5.67439779 17,4.0012207"/>
    </g>
    <circle cx="24" cy="24" r="3" stroke="#E62249" stroke-width="2"/>
  </g>
</svg>
