<svg xmlns="http://www.w3.org/2000/svg" width="46" height="46" viewBox="0 0 46 46">
  <g fill="none" fill-rule="evenodd" transform="translate(0 1)">
    <path stroke="#242B35" stroke-linecap="round" stroke-linejoin="round" stroke-width="2" d="M1.74509337 30.8017051C2.03446415 31.4995521 2.35720926 32.1800624 2.71133767 32.8412449 3.06759064 33.5063941 3.45560461 34.1519829 3.87335251 34.7759843 4.71278792 36.0298717 5.67228334 37.1965932 6.73539177 38.2597016 7.7985002 39.32281 8.96522164 40.2823054 10.2191091 41.1217409 10.8431105 41.5394888 11.4886993 41.9275027 12.1538485 42.2837557 12.815031 42.6378841 13.4955413 42.9606292 14.1933883 43.25M31.7967984 43.25C32.4946455 42.9606292 33.1751557 42.6378841 33.8363382 42.2837557 34.5014874 41.9275027 35.1470763 41.5394888 35.7710776 41.1217409 37.0249651 40.2823054 38.1916865 39.32281 39.254795 38.2597016 40.3179034 37.1965932 41.2773988 36.0298717 42.1168342 34.7759843 42.5345821 34.1519829 42.9225961 33.5063941 43.2788491 32.8412449 43.6329775 32.1800624 43.9557226 31.4995521 44.2450934 30.8017051M44.2450934 13.1982949C43.9557226 12.5004479 43.6329775 11.8199376 43.2788491 11.1587551 42.9225961 10.4936059 42.5345821 9.84801711 42.1168342 9.22401573 41.2773988 7.97012828 40.3179034 6.80340684 39.254795 5.74029841 38.1916865 4.67718997 37.0249651 3.71769456 35.7710776 2.87825915 35.1470763 2.46051125 34.5014874 2.07249728 33.8363382 1.71624431 33.1751557 1.36211589 32.4946455 1.03937079 31.7967984.75M14.1933883.75C13.4955413 1.03937079 12.815031 1.36211589 12.1538485 1.71624431 11.4886993 2.07249728 10.8431105 2.46051125 10.2191091 2.87825915 8.96522164 3.71769456 7.7985002 4.67718997 6.73539177 5.74029841 5.67228334 6.80340684 4.71278792 7.97012828 3.87335251 9.22401573 3.45560461 9.84801711 3.06759064 10.4936059 2.71133767 11.1587551 2.35720926 11.8199376 2.03446415 12.5004479 1.74509337 13.1982949M23 31L16 31C13.790861 31 12 29.209139 12 27M12 23C12 21.4399414 12 20.1066081 12 17 12 14.790861 13.790861 13 16 13L30 13C32.209139 13 34 14.790861 34 17L34 27C34 29.209139 32.209139 31 30 31L27 31"/>
    <g transform="translate(18 19)">
      <circle cx="7" cy="3" r="3" fill="#E62249"/>
      <polyline stroke="#E62249" stroke-linecap="round" stroke-linejoin="round" stroke-width="2" points=".999 1 2 1 2 5"/>
    </g>
  </g>
</svg>
