<svg xmlns="http://www.w3.org/2000/svg" width="135" height="26" viewBox="0 0 135 26">
  <g fill="#410093">
    <path d="M36.8731526,7.02095816 C36.2118928,7.08597008 33.4591184,7.69964314 32.5338827,7.89697727 C31.5431479,8.15932333 22.4915771,15.1178964 21.8969712,16.8265934 C21.7651482,17.4179391 21.6990717,18.3277776 21.6990717,19.1827827 L21.6327478,20.5637934 C21.6327478,21.5491507 21.9078602,23.1383308 22.0396007,23.9926793 C22.6347015,24.1246732 26.9415519,24.0094248 27.7341397,24.1404336 L27.6366336,25.907904 C26.8621941,25.8517573 21.3931896,25.8648911 18.2687041,25.8648911 C16.682621,25.8648911 11.5840077,26.0389128 10.0174754,25.9919598 L10.3136234,24.311172 C11.1726177,24.2448467 14.7291989,24.4638515 15.5110627,23.6426657 C15.8994373,23.235192 15.7756986,22.7984958 15.7756986,20.4321278 L15.7756986,19.3147766 C15.7756986,18.7887711 15.7756986,17.8021004 15.6431332,16.8814267 C15.3129982,15.8950843 7.34051162,5.98963281 5.2924706,4.41227306 C4.69736979,4.21526727 0.970854096,3.84440385 0.0460308024,3.64674137 L0,2.13258766 C0.461380485,1.90241922 4.60522569,2.18857013 8.62656952,2.04048744 C11.2694639,1.94329791 17.2996648,2.04048744 18.0436646,2.12864754 L17.8530244,3.46303347 C17.0604366,3.66053179 13.2421068,3.7335881 12.250877,3.9962625 C14.8277774,7.80930971 18.9019989,12.7183658 20.2236111,14.6250536 C20.9507824,13.573371 27.3378458,9.20082733 27.5358278,7.68880784 C26.5444331,7.49081701 23.2629644,7.02095818 22.7341875,7.02095818 L22.4203036,5.29945585 C23.3198842,5.15941756 28.0500035,5.29945585 30.4016169,5.29945585 C32.4310971,5.29945585 36.7677272,5.29945585 38,5.39992881 L36.8731526,7.02095816"/>
    <path d="M39.7493735,11.4757915 L39.7070951,11.2077969 C38.9388116,12.9938097 37.6340995,15.8000885 37.3782304,16.4799289 L41.5820585,16.478076 C41.0696441,15.1600009 40.1335998,12.5809532 39.7493735,11.4757915 Z M50.9134138,25 C50.6152663,24.9570468 47.2216619,24.9575521 45.984257,24.9575521 C45.2580828,24.9575521 41.5621031,24.9361597 40.9213314,24.9361597 L41.1134445,23.3564909 C41.9678069,23.3142114 43.5557844,22.9697432 44.2819586,22.8848474 C43.812499,21.8226389 42.2632485,18.4481982 41.921808,17.8106372 C41.0253363,17.8106372 37.8013529,17.9111984 36.9048812,18.0811585 C36.7344146,18.3789677 35.5105388,19.5744155 35.2977938,21.1897944 C35.8956107,21.3171381 37.0418633,21.5627296 37.7245753,21.647457 L37.4720885,23.2618253 C36.7467599,23.2193774 33.8527174,23.3041048 33.1698363,23.2618253 C32.5288954,23.2618253 29.5551157,23.2688999 29,23.3537958 L29.5286494,21.647457 C30.2111923,21.5627296 31.7849643,21.0754208 32.3817665,20.9485824 C33.2785764,19.6734606 37.4299792,11.5906703 37.771758,10.8250919 C37.2162195,10.6972428 36.2735798,10.2528872 35.6752556,10.1679914 L35.5932354,9 C36.3190714,9.04312169 39.9262664,9.15092592 40.309478,9.13189173 C41.16773,9.09011759 44.3534937,9.10578289 45.0794988,9.06400875 L44.8104389,10.2111131 C44.1703436,10.2528872 43.1289415,10.563835 42.5309555,10.6911788 C42.8297794,11.5839325 44.0184795,14.4621369 44.9149512,16.587733 C45.5980014,18.1188899 46.7315705,21.1185425 47.7985087,22.861939 C48.5238374,22.9892827 50.1885925,23.4760862 50.956876,23.5183656 L51,23.9443608 L50.9134138,25 Z"/>
    <path d="M74.7800989 20.8513934C74.2126596 20.8073375 71.482235 20.8112828 70.0860507 20.8513934 68.966332 20.8832847 66.3063279 20.7488154 65.0400629 20.8042141L64.9433977 19.2397354C65.3796136 19.1953507 68.1036809 19.0086062 68.6271073 18.9198368 68.8015285 18.0839248 68.7180672 16.8977025 68.7180672 15.8865531L68.6507439 14.0444234C67.2540705 14.0444234 58.02116 14.5288742 57.6281418 14.5721082L56.9536047 14.6608776C56.9536047 17.1705862 57.0845021 17.9635929 57.2592493 18.8879455 58.0017617 19.019127 60.6650261 19.1953507 61.2319764 19.2841201L61.1975812 20.9891504C60.5422792 20.9449301 56.4469683 20.9891504 55.1807033 20.9891504 53.6532956 20.9891504 49.938125 20.9559441 49.0648781 21L49.1832237 19.2397354C49.8817234 19.1953507 52.5223293 18.9331522 53.0899316 18.8455335 53.1773052 17.6995861 53.220829 15.8957588 53.220829 14.0023401L53.220829 11.6690196C53.220829 10.8766704 53.1773052 8.58740594 53.1332924 7.79439919 52.5656901 7.70760243 49.9250842 7.52907728 49.1393739 7.48518573L49 6.15216506C49.5237525 6.19687854 53.1689916 6.09610882 55.0894175 6.09610882 56.879435 6.09610882 60.9380686 6.13178098 61.4182973 6.08723188L61.2759892 7.48518573C60.4465921 7.52907728 57.6961172 7.74919255 57.2160515 7.83714001 57.0845021 8.49814336 56.9536047 9.07070607 56.9536047 11.1834181L56.8892156 12.2848164C57.6749259 12.2848164 67.4141468 12.2461852 68.6271074 12.0719342L68.6271074 10.5547992C68.6271074 8.61798209 68.9252534 6.52384589 68.7073085 5.95079003 68.2267538 5.81944419 65.6247813 5.44990041 64.7947323 5.40535131L64.9111217 4C65.4352002 4.04438471 67.8880181 4.02942542 69.7210704 4.07364573 71.6419852 4.07364573 74.4327237 4.15320944 75 4.06526195L74.8710588 5.22271647C74.3037825 5.26710118 71.7727196 5.91248768 71.7727196 5.91248768 71.7727196 5.91248768 71.5999285 7.11876536 71.7269137 8.8538786 71.8317294 10.2947377 71.8636794 13.1287834 71.8636794 13.1287834 71.936056 16.2843716 72.1290604 18.8343551 71.9548022 18.9670161 71.7448448 19.1249928 73.9590154 19.2609415 74.5696525 19.3495465L74.8086258 19.7677491 74.7800989 20.8513934M94.491561 13.3714891C94.6493415 8.94958299 91.2033807 7.77251005 86.8502628 8.07261872 84.572529 8.22977961 79.9373579 9.43919959 79.9373579 13.3714891 79.9373579 17.2577085 83.4929519 19.3622267 88.2372681 18.9466163 91.9091642 18.6257597 93.8362021 17.2678374 94.3092186 15.38109L94.491561 13.3714891zM97.9936396 13.0060328C98.200381 18.3495029 93.3423651 21 87.0324424 21 84.4064527 21 81.2101757 20.4974772 78.4813846 18.8530059 76.3524851 17.5699065 76 15.9056675 76 13.824021 76 9.52104743 80.663962 5.95405081 87.8041034 6.00044757 90.5215083 6.00044757 93.1411542 6.41671154 95.2585048 8.07523264 97.1479682 9.55519153 97.4671079 10.2901882 97.81146 11.9095008L97.9936396 13.0060328zM128.639991 21.8799022L127.017289 21.7503786 127 18.479623 129.054399 18.7178684 130.895569 18.7973377 130.384589 22 128.639991 21.8799022zM130.73019 16.102369L127.70203 15.828858C128.01969 14.4039358 127.743244 3.4649598 127.71862 2.29794716L127.562672 0C128.40633.154713273 128.278498.0734563104 131.838245.421886204 134.00441.633479361 134.287143.723837105 135 .750001856L134.069548 3.47503565C133.27566 5.65451015 130.974503 15.3743065 130.73019 16.102369zM122.078317 11.5661256C122.389821 6.77066805 117.603233 5.02385618 112.442806 5.36529407 109.742147 5.54383966 104.696085 7.08536485 104.696085 11.5661256 104.696085 15.9935672 108.918958 18.2256318 114.545459 17.7527713 118.897394 17.3867121 120.709151 15.8063797 121.70093 13.6636695 121.70093 13.6636695 121.984561 13.0248187 122.078317 11.5661256zM125.982253 10.8578132C126.368593 15.8518722 120.397478 20 112.914792 20 109.802285 20 107.152473 19.6357344 104.08203 17.6756461 101.556887 16.0631919 100.350569 14.6661337 100.035517 11.915064 99.4770397 7.0424813 105.565222 2.9478356 114.030565 3.00050248 117.253044 3.00050248 120.357949 3.47368908 122.869746 5.36431575 125.108893 7.04998185 125.500638 8.64971779 125.909445 10.4961565L125.982253 10.8578132z"/>
  </g>
</svg>
